<svg width="842" height="945" viewBox="0 0 842 945" fill="none" xmlns="http://www.w3.org/2000/svg">
<g opacity="0.037037">
<g opacity="0.037037">
<mask id="path-1-inside-1_1_794" fill="white">
<path d="M379.091 940.561C369.691 940.561 360.291 940.261 350.891 939.761C303.091 936.961 256.391 927.161 212.191 910.561C120.191 876.061 53.0907 814.661 27.9907 742.061C22.1907 725.361 18.2907 707.261 16.4907 688.261C12.8907 651.661 16.2907 611.461 26.9907 565.461C34.8907 531.261 45.6907 484.561 60.9907 432.361C96.7907 309.761 139.591 217.161 191.991 149.161C254.091 68.1614 328.091 24.2614 412.091 18.4614C480.091 13.8614 556.391 34.2614 638.791 79.1614C691.191 107.661 737.091 154.061 771.491 213.261C815.491 289.061 839.491 381.461 838.991 473.661C838.591 548.961 819.491 624.961 783.791 693.461C748.191 761.561 697.691 819.661 637.591 861.261C587.991 895.561 532.291 919.161 471.991 931.361C441.691 937.461 410.491 940.561 379.091 940.561ZM430.991 18.9614C424.591 18.9614 418.391 19.1614 412.091 19.5614C328.491 25.3614 254.691 69.1614 192.791 149.761C140.491 217.661 97.6907 310.161 61.9907 432.661C46.7907 484.761 35.8907 531.461 28.0907 565.661C17.3907 611.561 13.9907 651.661 17.5907 688.161C19.4907 707.061 23.2907 725.061 29.0907 741.661C54.0907 813.961 120.991 875.061 212.591 909.461C256.691 925.961 303.191 935.761 350.891 938.561C391.691 940.961 432.391 938.161 471.791 930.161C531.891 917.961 587.491 894.461 636.891 860.261C760.091 774.961 837.091 626.761 837.891 473.561C838.391 381.661 814.391 289.361 770.491 213.761C736.191 154.761 690.491 108.461 638.291 80.0614C563.491 39.5614 493.891 18.9614 430.991 18.9614Z"/>
</mask>
<path d="M379.091 940.561C369.691 940.561 360.291 940.261 350.891 939.761C303.091 936.961 256.391 927.161 212.191 910.561C120.191 876.061 53.0907 814.661 27.9907 742.061C22.1907 725.361 18.2907 707.261 16.4907 688.261C12.8907 651.661 16.2907 611.461 26.9907 565.461C34.8907 531.261 45.6907 484.561 60.9907 432.361C96.7907 309.761 139.591 217.161 191.991 149.161C254.091 68.1614 328.091 24.2614 412.091 18.4614C480.091 13.8614 556.391 34.2614 638.791 79.1614C691.191 107.661 737.091 154.061 771.491 213.261C815.491 289.061 839.491 381.461 838.991 473.661C838.591 548.961 819.491 624.961 783.791 693.461C748.191 761.561 697.691 819.661 637.591 861.261C587.991 895.561 532.291 919.161 471.991 931.361C441.691 937.461 410.491 940.561 379.091 940.561ZM430.991 18.9614C424.591 18.9614 418.391 19.1614 412.091 19.5614C328.491 25.3614 254.691 69.1614 192.791 149.761C140.491 217.661 97.6907 310.161 61.9907 432.661C46.7907 484.761 35.8907 531.461 28.0907 565.661C17.3907 611.561 13.9907 651.661 17.5907 688.161C19.4907 707.061 23.2907 725.061 29.0907 741.661C54.0907 813.961 120.991 875.061 212.591 909.461C256.691 925.961 303.191 935.761 350.891 938.561C391.691 940.961 432.391 938.161 471.791 930.161C531.891 917.961 587.491 894.461 636.891 860.261C760.091 774.961 837.091 626.761 837.891 473.561C838.391 381.661 814.391 289.361 770.491 213.761C736.191 154.761 690.491 108.461 638.291 80.0614C563.491 39.5614 493.891 18.9614 430.991 18.9614Z" fill="url(#paint0_linear_1_794)" stroke="#DFECEF" stroke-width="2" mask="url(#path-1-inside-1_1_794)"/>
</g>
</g>
<g opacity="0.074074">
<g opacity="0.074074">
<mask id="path-2-inside-2_1_794" fill="white">
<path d="M391.291 936.361C380.991 936.361 370.591 936.061 360.191 935.361C313.391 932.261 267.791 922.461 224.591 906.161C183.391 890.561 145.791 868.761 115.791 843.061C81.2907 813.461 56.9907 779.361 43.5907 741.561C37.7907 725.261 33.7907 707.661 31.7907 689.161C27.7907 653.161 30.7907 613.961 40.7907 569.161C48.2907 535.061 58.8907 489.361 73.7907 438.961C108.391 320.761 151.991 227.861 203.191 162.861C264.791 84.1612 337.391 41.5612 419.091 36.3612C485.191 32.3612 559.691 52.7612 640.191 97.1612C691.091 125.161 735.791 170.361 769.391 227.961C812.591 301.861 836.291 391.761 836.291 481.161C836.291 554.461 817.891 628.661 783.091 695.561C748.491 762.061 699.291 818.761 640.691 859.461C592.691 892.861 536.591 916.561 478.591 927.961C450.191 933.561 420.891 936.361 391.291 936.361ZM435.691 36.9612C430.191 36.9612 424.691 37.1612 419.191 37.4612C337.791 42.6612 265.491 85.0612 204.091 163.461C152.991 228.461 109.491 321.261 74.8907 439.261C59.9907 489.661 49.4907 535.261 41.9907 569.361C31.9907 613.961 28.9907 653.061 32.9907 688.961C34.9907 707.361 38.9907 724.961 44.6907 741.161C69.6907 811.461 135.391 871.261 224.891 905.061C267.991 921.361 313.491 931.061 360.191 934.161C400.391 936.761 440.191 934.361 478.391 926.761C536.291 915.361 592.091 891.761 639.991 858.461C760.291 774.961 835.091 630.361 835.091 481.061C835.191 391.861 811.491 302.161 768.391 228.461C734.891 171.061 690.291 125.961 639.591 98.0612C565.991 57.5612 497.391 36.9612 435.691 36.9612Z"/>
</mask>
<path d="M391.291 936.361C380.991 936.361 370.591 936.061 360.191 935.361C313.391 932.261 267.791 922.461 224.591 906.161C183.391 890.561 145.791 868.761 115.791 843.061C81.2907 813.461 56.9907 779.361 43.5907 741.561C37.7907 725.261 33.7907 707.661 31.7907 689.161C27.7907 653.161 30.7907 613.961 40.7907 569.161C48.2907 535.061 58.8907 489.361 73.7907 438.961C108.391 320.761 151.991 227.861 203.191 162.861C264.791 84.1612 337.391 41.5612 419.091 36.3612C485.191 32.3612 559.691 52.7612 640.191 97.1612C691.091 125.161 735.791 170.361 769.391 227.961C812.591 301.861 836.291 391.761 836.291 481.161C836.291 554.461 817.891 628.661 783.091 695.561C748.491 762.061 699.291 818.761 640.691 859.461C592.691 892.861 536.591 916.561 478.591 927.961C450.191 933.561 420.891 936.361 391.291 936.361ZM435.691 36.9612C430.191 36.9612 424.691 37.1612 419.191 37.4612C337.791 42.6612 265.491 85.0612 204.091 163.461C152.991 228.461 109.491 321.261 74.8907 439.261C59.9907 489.661 49.4907 535.261 41.9907 569.361C31.9907 613.961 28.9907 653.061 32.9907 688.961C34.9907 707.361 38.9907 724.961 44.6907 741.161C69.6907 811.461 135.391 871.261 224.891 905.061C267.991 921.361 313.491 931.061 360.191 934.161C400.391 936.761 440.191 934.361 478.391 926.761C536.291 915.361 592.091 891.761 639.991 858.461C760.291 774.961 835.091 630.361 835.091 481.061C835.191 391.861 811.491 302.161 768.391 228.461C734.891 171.061 690.291 125.961 639.591 98.0612C565.991 57.5612 497.391 36.9612 435.691 36.9612Z" fill="url(#paint1_linear_1_794)" stroke="#DFECEF" stroke-width="2" mask="url(#path-2-inside-2_1_794)"/>
</g>
</g>
<g opacity="0.1111">
<g opacity="0.1111">
<mask id="path-3-inside-3_1_794" fill="white">
<path d="M403.491 932.162C392.191 932.162 380.791 931.762 369.391 930.962C323.591 927.662 279.091 917.762 236.891 901.762C196.591 886.462 159.691 865.062 130.391 839.962C96.6907 811.162 72.6907 777.862 59.2907 741.162C53.4907 725.262 49.3907 708.162 47.1907 690.162C42.8907 655.162 45.3907 616.862 54.6907 573.062C61.0907 543.162 71.2907 497.362 86.6907 445.762C120.491 330.762 163.591 240.262 214.591 176.662C243.391 140.762 274.491 112.462 306.891 92.4618C343.991 69.6618 384.191 56.8618 426.291 54.4618C490.391 50.8618 562.891 71.2618 641.891 115.262C691.991 143.062 734.291 185.962 767.591 242.762C809.991 314.762 833.491 402.162 833.791 488.862C834.091 560.262 816.391 632.562 782.591 697.862C748.991 762.562 701.091 817.862 643.991 857.662C596.791 890.562 541.991 913.662 485.391 924.562C458.791 929.662 431.391 932.162 403.491 932.162ZM440.791 55.0618C435.891 55.0618 431.091 55.1618 426.291 55.4618C347.591 59.8618 276.691 100.862 215.391 177.262C164.491 240.762 121.491 331.162 87.6907 445.962C72.3907 497.562 62.0907 543.262 55.7907 573.162C46.4907 616.862 43.9907 655.062 48.2907 689.962C50.4907 707.862 54.4907 724.962 60.2907 740.762C85.2907 809.162 149.791 867.462 237.291 900.762C279.391 916.762 323.891 926.562 369.491 929.862C409.091 932.762 447.991 930.562 485.091 923.562C541.491 912.762 596.191 889.762 643.291 856.862C760.691 775.162 833.191 634.062 832.591 488.762C832.291 402.262 808.791 315.062 766.491 243.262C733.291 186.762 691.091 143.962 641.191 116.262C568.391 75.5618 500.991 55.0618 440.791 55.0618Z"/>
</mask>
<path d="M403.491 932.162C392.191 932.162 380.791 931.762 369.391 930.962C323.591 927.662 279.091 917.762 236.891 901.762C196.591 886.462 159.691 865.062 130.391 839.962C96.6907 811.162 72.6907 777.862 59.2907 741.162C53.4907 725.262 49.3907 708.162 47.1907 690.162C42.8907 655.162 45.3907 616.862 54.6907 573.062C61.0907 543.162 71.2907 497.362 86.6907 445.762C120.491 330.762 163.591 240.262 214.591 176.662C243.391 140.762 274.491 112.462 306.891 92.4618C343.991 69.6618 384.191 56.8618 426.291 54.4618C490.391 50.8618 562.891 71.2618 641.891 115.262C691.991 143.062 734.291 185.962 767.591 242.762C809.991 314.762 833.491 402.162 833.791 488.862C834.091 560.262 816.391 632.562 782.591 697.862C748.991 762.562 701.091 817.862 643.991 857.662C596.791 890.562 541.991 913.662 485.391 924.562C458.791 929.662 431.391 932.162 403.491 932.162ZM440.791 55.0618C435.891 55.0618 431.091 55.1618 426.291 55.4618C347.591 59.8618 276.691 100.862 215.391 177.262C164.491 240.762 121.491 331.162 87.6907 445.962C72.3907 497.562 62.0907 543.262 55.7907 573.162C46.4907 616.862 43.9907 655.062 48.2907 689.962C50.4907 707.862 54.4907 724.962 60.2907 740.762C85.2907 809.162 149.791 867.462 237.291 900.762C279.391 916.762 323.891 926.562 369.491 929.862C409.091 932.762 447.991 930.562 485.091 923.562C541.491 912.762 596.191 889.762 643.291 856.862C760.691 775.162 833.191 634.062 832.591 488.762C832.291 402.262 808.791 315.062 766.491 243.262C733.291 186.762 691.091 143.962 641.191 116.262C568.391 75.5618 500.991 55.0618 440.791 55.0618Z" fill="url(#paint2_linear_1_794)" stroke="#DFECEF" stroke-width="2" mask="url(#path-3-inside-3_1_794)"/>
</g>
</g>
<g opacity="0.1481">
<g opacity="0.1481">
<mask id="path-4-inside-4_1_794" fill="white">
<path d="M415.691 927.962C403.491 927.962 391.091 927.462 378.691 926.462C333.991 922.862 290.391 913.062 249.191 897.262C209.791 882.162 173.691 861.262 144.891 836.762C111.791 808.662 88.2909 776.262 74.7909 740.562C68.9909 725.162 64.8909 708.462 62.4909 690.862C57.8909 656.562 59.7909 619.162 68.3909 576.562C77.1909 533.162 87.5909 491.262 99.3909 452.062C132.591 339.962 175.091 251.762 225.691 190.062C254.291 155.262 284.791 127.862 316.491 108.562C352.891 86.3624 392.191 74.0624 433.191 72.0624C496.291 68.9624 564.991 88.7624 643.191 132.862C691.691 160.162 732.891 201.962 765.391 256.962C806.891 327.062 830.191 411.962 830.891 495.962C831.591 565.362 814.591 635.762 781.791 699.562C749.291 762.862 702.691 816.862 646.991 855.762C600.591 888.262 546.991 910.762 491.791 921.062C467.391 925.762 441.791 927.962 415.691 927.962ZM446.291 72.9624C441.991 72.9624 437.591 73.0624 433.391 73.2624C356.091 77.1624 288.391 115.562 226.691 190.862C176.191 252.462 133.691 340.462 100.591 452.462C88.8909 491.662 78.4909 533.462 69.6909 576.862C61.0909 619.362 59.1909 656.562 63.7909 690.762C66.1909 708.162 70.2909 724.862 75.9909 740.162C100.991 806.562 164.291 863.462 249.691 896.162C290.791 911.862 334.191 921.662 378.791 925.262C417.791 928.362 455.791 926.562 491.791 919.962C546.791 909.762 600.291 887.262 646.591 854.862C760.991 774.962 831.291 637.462 829.991 496.062C829.291 412.362 806.091 327.662 764.591 257.662C732.091 202.762 691.091 161.162 642.791 133.962C569.991 93.0624 505.591 72.9624 446.291 72.9624Z"/>
</mask>
<path d="M415.691 927.962C403.491 927.962 391.091 927.462 378.691 926.462C333.991 922.862 290.391 913.062 249.191 897.262C209.791 882.162 173.691 861.262 144.891 836.762C111.791 808.662 88.2909 776.262 74.7909 740.562C68.9909 725.162 64.8909 708.462 62.4909 690.862C57.8909 656.562 59.7909 619.162 68.3909 576.562C77.1909 533.162 87.5909 491.262 99.3909 452.062C132.591 339.962 175.091 251.762 225.691 190.062C254.291 155.262 284.791 127.862 316.491 108.562C352.891 86.3624 392.191 74.0624 433.191 72.0624C496.291 68.9624 564.991 88.7624 643.191 132.862C691.691 160.162 732.891 201.962 765.391 256.962C806.891 327.062 830.191 411.962 830.891 495.962C831.591 565.362 814.591 635.762 781.791 699.562C749.291 762.862 702.691 816.862 646.991 855.762C600.591 888.262 546.991 910.762 491.791 921.062C467.391 925.762 441.791 927.962 415.691 927.962ZM446.291 72.9624C441.991 72.9624 437.591 73.0624 433.391 73.2624C356.091 77.1624 288.391 115.562 226.691 190.862C176.191 252.462 133.691 340.462 100.591 452.462C88.8909 491.662 78.4909 533.462 69.6909 576.862C61.0909 619.362 59.1909 656.562 63.7909 690.762C66.1909 708.162 70.2909 724.862 75.9909 740.162C100.991 806.562 164.291 863.462 249.691 896.162C290.791 911.862 334.191 921.662 378.791 925.262C417.791 928.362 455.791 926.562 491.791 919.962C546.791 909.762 600.291 887.262 646.591 854.862C760.991 774.962 831.291 637.462 829.991 496.062C829.291 412.362 806.091 327.662 764.591 257.662C732.091 202.762 691.091 161.162 642.791 133.962C569.991 93.0624 505.591 72.9624 446.291 72.9624Z" fill="url(#paint3_linear_1_794)" stroke="#DFECEF" stroke-width="2" mask="url(#path-4-inside-4_1_794)"/>
</g>
</g>
<g opacity="0.1852">
<g opacity="0.1852">
<mask id="path-5-inside-5_1_794" fill="white">
<path d="M427.891 923.861C414.791 923.861 401.391 923.261 387.891 922.061C344.191 918.161 301.691 908.361 261.491 892.861C222.991 877.961 187.691 857.561 159.491 833.661C127.091 806.261 103.891 774.861 90.3907 740.061C84.5907 725.061 80.3907 708.861 77.7907 691.761C72.8907 658.661 74.3907 621.161 82.1907 580.361C87.4907 552.861 96.9907 509.361 112.091 458.761C144.991 348.961 186.991 263.161 236.791 203.861C298.391 130.461 364.991 93.2614 440.191 89.9614C501.391 87.3614 568.191 107.261 644.591 150.861C691.591 177.661 731.591 218.261 763.391 271.661C804.091 339.961 827.191 422.261 828.291 503.461C829.291 570.961 812.991 639.461 781.191 701.761C749.691 763.461 704.391 816.061 650.191 854.061C604.691 886.061 552.191 908.061 498.391 917.761C475.891 921.861 452.291 923.861 427.891 923.861ZM451.291 90.9614C447.691 90.9614 444.091 91.0614 440.491 91.1614C365.591 94.3614 299.391 131.561 237.891 204.661C188.191 263.861 146.291 349.461 113.391 459.161C98.1907 509.761 88.7907 553.161 83.4907 580.661C75.6907 621.361 74.1907 658.661 79.0907 691.661C81.5907 708.661 85.7907 724.761 91.5907 739.661C125.791 827.961 212.991 872.861 261.991 891.761C302.091 907.261 344.491 917.061 388.091 920.861C426.491 924.261 463.591 922.761 498.491 916.561C552.091 906.961 604.491 884.961 649.791 853.061C759.691 776.061 829.391 638.861 827.391 503.461C826.291 422.461 803.291 340.361 762.691 272.261C730.991 219.061 691.191 178.561 644.391 151.861C572.591 110.961 509.291 90.9614 451.291 90.9614Z"/>
</mask>
<path d="M427.891 923.861C414.791 923.861 401.391 923.261 387.891 922.061C344.191 918.161 301.691 908.361 261.491 892.861C222.991 877.961 187.691 857.561 159.491 833.661C127.091 806.261 103.891 774.861 90.3907 740.061C84.5907 725.061 80.3907 708.861 77.7907 691.761C72.8907 658.661 74.3907 621.161 82.1907 580.361C87.4907 552.861 96.9907 509.361 112.091 458.761C144.991 348.961 186.991 263.161 236.791 203.861C298.391 130.461 364.991 93.2614 440.191 89.9614C501.391 87.3614 568.191 107.261 644.591 150.861C691.591 177.661 731.591 218.261 763.391 271.661C804.091 339.961 827.191 422.261 828.291 503.461C829.291 570.961 812.991 639.461 781.191 701.761C749.691 763.461 704.391 816.061 650.191 854.061C604.691 886.061 552.191 908.061 498.391 917.761C475.891 921.861 452.291 923.861 427.891 923.861ZM451.291 90.9614C447.691 90.9614 444.091 91.0614 440.491 91.1614C365.591 94.3614 299.391 131.561 237.891 204.661C188.191 263.861 146.291 349.461 113.391 459.161C98.1907 509.761 88.7907 553.161 83.4907 580.661C75.6907 621.361 74.1907 658.661 79.0907 691.661C81.5907 708.661 85.7907 724.761 91.5907 739.661C125.791 827.961 212.991 872.861 261.991 891.761C302.091 907.261 344.491 917.061 388.091 920.861C426.491 924.261 463.591 922.761 498.491 916.561C552.091 906.961 604.491 884.961 649.791 853.061C759.691 776.061 829.391 638.861 827.391 503.461C826.291 422.461 803.291 340.361 762.691 272.261C730.991 219.061 691.191 178.561 644.391 151.861C572.591 110.961 509.291 90.9614 451.291 90.9614Z" fill="url(#paint4_linear_1_794)" stroke="#DFECEF" stroke-width="2" mask="url(#path-5-inside-5_1_794)"/>
</g>
</g>
<g opacity="0.2222">
<g opacity="0.2222">
<mask id="path-6-inside-6_1_794" fill="white">
<path d="M440.191 919.761C426.191 919.761 411.891 919.061 397.291 917.661C354.591 913.561 313.191 903.661 273.991 888.461C226.091 869.761 140.591 825.661 106.191 739.661C100.391 725.061 96.0908 709.361 93.3908 692.761C88.0908 660.361 89.0908 623.861 96.2908 584.161C102.991 547.361 113.191 505.161 125.191 465.461C147.391 391.861 186.891 289.061 248.391 217.661C309.691 146.561 374.791 110.661 447.591 107.961C506.891 105.861 571.891 125.761 646.391 168.861C691.891 195.061 730.691 234.661 761.691 286.361C801.591 352.761 824.391 432.561 825.891 511.061C827.191 576.561 811.591 643.261 780.791 703.961C750.291 764.061 706.291 815.361 653.691 852.361C608.991 883.861 557.691 905.361 505.291 914.461C484.491 917.961 462.691 919.761 440.191 919.761ZM456.291 108.961C453.391 108.961 450.491 109.061 447.591 109.161C375.091 111.761 310.191 147.561 249.191 218.461C187.791 289.761 148.491 392.361 126.291 465.861C114.291 505.561 103.991 547.661 97.3908 584.461C90.2908 623.961 89.2908 660.361 94.4908 692.661C97.1908 709.161 101.491 724.861 107.291 739.361C141.491 824.961 226.691 868.961 274.391 887.561C313.491 902.761 354.891 912.561 397.391 916.661C435.091 920.361 471.391 919.161 505.191 913.361C557.391 904.361 608.591 882.961 653.091 851.461C760.091 776.261 827.491 642.661 824.791 511.161C823.291 432.861 800.591 353.261 760.791 287.061C729.891 235.561 691.191 196.161 645.891 169.961C575.091 128.861 512.991 108.961 456.291 108.961Z"/>
</mask>
<path d="M440.191 919.761C426.191 919.761 411.891 919.061 397.291 917.661C354.591 913.561 313.191 903.661 273.991 888.461C226.091 869.761 140.591 825.661 106.191 739.661C100.391 725.061 96.0908 709.361 93.3908 692.761C88.0908 660.361 89.0908 623.861 96.2908 584.161C102.991 547.361 113.191 505.161 125.191 465.461C147.391 391.861 186.891 289.061 248.391 217.661C309.691 146.561 374.791 110.661 447.591 107.961C506.891 105.861 571.891 125.761 646.391 168.861C691.891 195.061 730.691 234.661 761.691 286.361C801.591 352.761 824.391 432.561 825.891 511.061C827.191 576.561 811.591 643.261 780.791 703.961C750.291 764.061 706.291 815.361 653.691 852.361C608.991 883.861 557.691 905.361 505.291 914.461C484.491 917.961 462.691 919.761 440.191 919.761ZM456.291 108.961C453.391 108.961 450.491 109.061 447.591 109.161C375.091 111.761 310.191 147.561 249.191 218.461C187.791 289.761 148.491 392.361 126.291 465.861C114.291 505.561 103.991 547.661 97.3908 584.461C90.2908 623.961 89.2908 660.361 94.4908 692.661C97.1908 709.161 101.491 724.861 107.291 739.361C141.491 824.961 226.691 868.961 274.391 887.561C313.491 902.761 354.891 912.561 397.391 916.661C435.091 920.361 471.391 919.161 505.191 913.361C557.391 904.361 608.591 882.961 653.091 851.461C760.091 776.261 827.491 642.661 824.791 511.161C823.291 432.861 800.591 353.261 760.791 287.061C729.891 235.561 691.191 196.161 645.891 169.961C575.091 128.861 512.991 108.961 456.291 108.961Z" fill="url(#paint5_linear_1_794)" stroke="#DFECEF" stroke-width="2" mask="url(#path-6-inside-6_1_794)"/>
</g>
</g>
<g opacity="0.2593">
<g opacity="0.2593">
<mask id="path-7-inside-7_1_794" fill="white">
<path d="M452.391 915.662C437.491 915.662 422.291 914.862 406.691 913.162C365.091 908.762 324.591 898.962 286.491 883.962C239.791 865.662 156.391 822.362 121.991 739.062C116.191 724.962 111.791 709.662 108.891 693.562C103.291 661.862 103.691 626.262 110.191 587.862C116.091 552.862 126.091 511.662 138.091 471.962C159.991 400.162 198.791 300.162 259.691 231.262C320.591 162.362 384.391 127.862 454.791 125.762C456.991 125.662 459.191 125.662 461.491 125.662C517.091 125.662 578.191 145.662 648.091 186.662C691.991 212.462 729.591 250.862 759.891 300.862C798.991 365.362 821.591 442.662 823.391 518.362C825.091 581.962 810.191 646.762 780.391 705.862C750.891 764.362 708.191 814.262 657.091 850.362C613.291 881.462 563.091 902.362 512.091 910.862C492.991 914.062 473.091 915.662 452.391 915.662ZM461.391 126.862C459.191 126.862 456.991 126.862 454.791 126.962C384.791 128.962 321.291 163.362 260.591 232.062C199.791 300.862 161.091 400.662 139.191 472.362C127.091 511.962 117.191 553.162 111.291 588.062C104.791 626.362 104.391 661.762 109.991 693.362C112.791 709.362 117.191 724.562 122.991 738.662C157.191 821.562 240.291 864.662 286.791 882.962C324.891 897.862 365.191 907.662 406.691 912.062C443.791 915.962 479.191 915.262 511.791 909.762C562.591 901.262 612.591 880.462 656.291 849.462C760.391 776.062 825.491 646.062 822.191 518.462C820.291 442.962 797.791 365.862 758.791 301.462C728.591 251.562 691.191 213.362 647.391 187.762C577.691 146.762 516.791 126.862 461.391 126.862Z"/>
</mask>
<path d="M452.391 915.662C437.491 915.662 422.291 914.862 406.691 913.162C365.091 908.762 324.591 898.962 286.491 883.962C239.791 865.662 156.391 822.362 121.991 739.062C116.191 724.962 111.791 709.662 108.891 693.562C103.291 661.862 103.691 626.262 110.191 587.862C116.091 552.862 126.091 511.662 138.091 471.962C159.991 400.162 198.791 300.162 259.691 231.262C320.591 162.362 384.391 127.862 454.791 125.762C456.991 125.662 459.191 125.662 461.491 125.662C517.091 125.662 578.191 145.662 648.091 186.662C691.991 212.462 729.591 250.862 759.891 300.862C798.991 365.362 821.591 442.662 823.391 518.362C825.091 581.962 810.191 646.762 780.391 705.862C750.891 764.362 708.191 814.262 657.091 850.362C613.291 881.462 563.091 902.362 512.091 910.862C492.991 914.062 473.091 915.662 452.391 915.662ZM461.391 126.862C459.191 126.862 456.991 126.862 454.791 126.962C384.791 128.962 321.291 163.362 260.591 232.062C199.791 300.862 161.091 400.662 139.191 472.362C127.091 511.962 117.191 553.162 111.291 588.062C104.791 626.362 104.391 661.762 109.991 693.362C112.791 709.362 117.191 724.562 122.991 738.662C157.191 821.562 240.291 864.662 286.791 882.962C324.891 897.862 365.191 907.662 406.691 912.062C443.791 915.962 479.191 915.262 511.791 909.762C562.591 901.262 612.591 880.462 656.291 849.462C760.391 776.062 825.491 646.062 822.191 518.462C820.291 442.962 797.791 365.862 758.791 301.462C728.591 251.562 691.191 213.362 647.391 187.762C577.691 146.762 516.791 126.862 461.391 126.862Z" fill="url(#paint6_linear_1_794)" stroke="#DFECEF" stroke-width="2" mask="url(#path-7-inside-7_1_794)"/>
</g>
</g>
<g opacity="0.2963">
<g opacity="0.2963">
<mask id="path-8-inside-8_1_794" fill="white">
<path d="M464.691 911.66C449.091 911.66 432.891 910.66 416.091 908.76C375.491 904.06 336.091 894.26 298.891 879.56C253.391 861.56 172.091 819.26 137.691 738.56C131.891 724.86 127.391 709.96 124.391 694.46C118.391 663.46 118.291 628.86 124.191 591.66C129.491 558.26 138.991 518.06 151.091 478.66C172.591 408.76 210.791 311.46 271.091 245.06C331.691 178.36 394.091 145.26 461.991 143.76C517.391 142.56 578.791 162.56 649.691 204.76C692.091 229.96 728.591 267.26 757.991 315.56C796.291 378.26 818.591 452.96 820.891 525.96C822.891 587.56 808.691 650.56 779.891 708.06C751.391 764.86 710.091 813.56 660.391 848.76C617.391 879.36 568.491 899.66 518.791 907.66C501.291 910.26 483.391 911.66 464.691 911.66ZM466.691 144.76C465.091 144.76 463.591 144.76 461.991 144.76C394.391 146.26 332.291 179.26 271.891 245.66C211.691 311.96 173.491 409.06 152.091 478.86C139.991 518.26 130.391 558.36 125.191 591.76C119.391 628.86 119.391 663.26 125.391 694.16C128.391 709.66 132.791 724.46 138.691 738.06C172.891 818.36 253.991 860.46 299.291 878.36C336.391 893.06 375.691 902.86 416.191 907.56C453.191 911.86 486.691 911.36 518.691 906.26C568.191 898.36 616.891 878.06 659.791 847.56C760.991 775.86 823.791 649.56 819.791 525.76C817.591 452.96 795.291 378.46 757.091 315.96C727.691 267.76 691.391 230.66 649.191 205.56C580.391 164.66 520.691 144.76 466.691 144.76Z"/>
</mask>
<path d="M464.691 911.66C449.091 911.66 432.891 910.66 416.091 908.76C375.491 904.06 336.091 894.26 298.891 879.56C253.391 861.56 172.091 819.26 137.691 738.56C131.891 724.86 127.391 709.96 124.391 694.46C118.391 663.46 118.291 628.86 124.191 591.66C129.491 558.26 138.991 518.06 151.091 478.66C172.591 408.76 210.791 311.46 271.091 245.06C331.691 178.36 394.091 145.26 461.991 143.76C517.391 142.56 578.791 162.56 649.691 204.76C692.091 229.96 728.591 267.26 757.991 315.56C796.291 378.26 818.591 452.96 820.891 525.96C822.891 587.56 808.691 650.56 779.891 708.06C751.391 764.86 710.091 813.56 660.391 848.76C617.391 879.36 568.491 899.66 518.791 907.66C501.291 910.26 483.391 911.66 464.691 911.66ZM466.691 144.76C465.091 144.76 463.591 144.76 461.991 144.76C394.391 146.26 332.291 179.26 271.891 245.66C211.691 311.96 173.491 409.06 152.091 478.86C139.991 518.26 130.391 558.36 125.191 591.76C119.391 628.86 119.391 663.26 125.391 694.16C128.391 709.66 132.791 724.46 138.691 738.06C172.891 818.36 253.991 860.46 299.291 878.36C336.391 893.06 375.691 902.86 416.191 907.56C453.191 911.86 486.691 911.36 518.691 906.26C568.191 898.36 616.891 878.06 659.791 847.56C760.991 775.86 823.791 649.56 819.791 525.76C817.591 452.96 795.291 378.46 757.091 315.96C727.691 267.76 691.391 230.66 649.191 205.56C580.391 164.66 520.691 144.76 466.691 144.76Z" fill="url(#paint7_linear_1_794)" stroke="#DFECEF" stroke-width="2" mask="url(#path-8-inside-8_1_794)"/>
</g>
</g>
<g opacity="0.3333">
<g opacity="0.3333">
<mask id="path-9-inside-9_1_794" fill="white">
<path d="M476.691 907.561C460.391 907.561 443.391 906.461 425.491 904.261C385.891 899.361 347.491 889.461 311.391 875.061C267.191 857.361 187.891 815.961 153.491 738.061C147.591 724.761 143.091 710.361 139.891 695.361C133.491 664.961 132.991 631.361 138.191 595.361C142.791 563.361 151.991 524.261 164.091 485.161C185.191 417.061 222.891 322.561 282.591 258.561C342.791 194.161 403.891 162.361 469.291 161.461C522.791 160.761 582.391 180.661 651.391 222.461C692.291 247.061 727.591 283.261 756.291 329.961C793.791 390.761 815.891 462.961 818.491 533.161C820.791 592.861 807.391 653.961 779.491 709.861C751.991 765.161 711.991 812.461 663.791 846.761C621.691 876.861 573.891 896.661 525.691 904.061C509.891 906.361 493.591 907.561 476.691 907.561ZM471.991 162.561C471.091 162.561 470.091 162.561 469.191 162.561C404.091 163.461 343.291 195.061 283.291 259.261C223.691 323.061 186.091 417.361 165.091 485.361C152.991 524.361 143.791 563.461 139.191 595.361C133.991 631.161 134.591 664.661 140.891 694.961C143.991 709.961 148.591 724.261 154.391 737.461C188.591 815.061 267.591 856.261 311.691 873.861C347.691 888.261 385.991 898.061 425.491 903.061C461.791 907.561 494.491 907.561 525.391 902.761C573.491 895.461 621.091 875.661 662.991 845.661C761.491 775.861 821.991 653.161 817.291 533.261C814.691 463.261 792.691 391.261 755.291 330.561C726.691 284.061 691.491 247.961 650.791 223.461C583.091 182.561 524.591 162.561 471.991 162.561Z"/>
</mask>
<path d="M476.691 907.561C460.391 907.561 443.391 906.461 425.491 904.261C385.891 899.361 347.491 889.461 311.391 875.061C267.191 857.361 187.891 815.961 153.491 738.061C147.591 724.761 143.091 710.361 139.891 695.361C133.491 664.961 132.991 631.361 138.191 595.361C142.791 563.361 151.991 524.261 164.091 485.161C185.191 417.061 222.891 322.561 282.591 258.561C342.791 194.161 403.891 162.361 469.291 161.461C522.791 160.761 582.391 180.661 651.391 222.461C692.291 247.061 727.591 283.261 756.291 329.961C793.791 390.761 815.891 462.961 818.491 533.161C820.791 592.861 807.391 653.961 779.491 709.861C751.991 765.161 711.991 812.461 663.791 846.761C621.691 876.861 573.891 896.661 525.691 904.061C509.891 906.361 493.591 907.561 476.691 907.561ZM471.991 162.561C471.091 162.561 470.091 162.561 469.191 162.561C404.091 163.461 343.291 195.061 283.291 259.261C223.691 323.061 186.091 417.361 165.091 485.361C152.991 524.361 143.791 563.461 139.191 595.361C133.991 631.161 134.591 664.661 140.891 694.961C143.991 709.961 148.591 724.261 154.391 737.461C188.591 815.061 267.591 856.261 311.691 873.861C347.691 888.261 385.991 898.061 425.491 903.061C461.791 907.561 494.491 907.561 525.391 902.761C573.491 895.461 621.091 875.661 662.991 845.661C761.491 775.861 821.991 653.161 817.291 533.261C814.691 463.261 792.691 391.261 755.291 330.561C726.691 284.061 691.491 247.961 650.791 223.461C583.091 182.561 524.591 162.561 471.991 162.561Z" fill="url(#paint8_linear_1_794)" stroke="#DFECEF" stroke-width="2" mask="url(#path-9-inside-9_1_794)"/>
</g>
</g>
<g opacity="0.3704">
<g opacity="0.3704">
<mask id="path-10-inside-10_1_794" fill="white">
<path d="M488.491 903.562C471.491 903.562 453.691 902.262 434.791 899.762C396.291 894.562 358.891 884.662 323.791 870.562C249.591 840.562 194.591 793.262 169.191 737.462C163.291 724.662 158.691 710.662 155.391 696.062C148.691 666.362 147.491 633.662 152.091 598.962C156.091 568.262 164.991 530.162 176.991 491.662C197.691 425.462 234.791 333.562 293.891 272.162C321.591 243.362 348.291 222.062 375.591 206.862C408.091 188.762 442.091 179.462 476.491 179.262C476.791 179.262 477.191 179.262 477.491 179.262C528.891 179.262 586.291 199.262 652.991 240.362C692.291 264.462 726.391 299.462 754.391 344.462C791.091 403.462 812.991 473.062 815.891 540.562C821.291 656.962 762.891 776.462 667.091 844.762C625.891 874.362 579.291 893.662 532.391 900.462C518.291 902.562 503.791 903.562 488.491 903.562ZM477.491 180.462C477.191 180.462 476.791 180.462 476.491 180.462C413.891 180.762 354.391 211.062 294.791 272.962C235.791 334.162 198.791 425.862 178.191 491.962C166.191 530.362 157.291 568.462 153.291 599.062C148.691 633.662 149.791 666.262 156.591 695.762C159.891 710.262 164.491 724.162 170.391 736.862C195.691 792.362 250.391 839.462 324.391 869.362C359.491 883.462 396.691 893.362 435.091 898.562C470.791 903.362 502.591 903.662 532.391 899.362C579.091 892.562 625.491 873.462 666.591 843.962C762.091 775.762 820.291 656.762 814.891 540.762C811.891 473.462 790.091 404.062 753.491 345.162C725.691 300.362 691.691 265.362 652.491 241.362C585.891 200.362 528.691 180.462 477.491 180.462Z"/>
</mask>
<path d="M488.491 903.562C471.491 903.562 453.691 902.262 434.791 899.762C396.291 894.562 358.891 884.662 323.791 870.562C249.591 840.562 194.591 793.262 169.191 737.462C163.291 724.662 158.691 710.662 155.391 696.062C148.691 666.362 147.491 633.662 152.091 598.962C156.091 568.262 164.991 530.162 176.991 491.662C197.691 425.462 234.791 333.562 293.891 272.162C321.591 243.362 348.291 222.062 375.591 206.862C408.091 188.762 442.091 179.462 476.491 179.262C476.791 179.262 477.191 179.262 477.491 179.262C528.891 179.262 586.291 199.262 652.991 240.362C692.291 264.462 726.391 299.462 754.391 344.462C791.091 403.462 812.991 473.062 815.891 540.562C821.291 656.962 762.891 776.462 667.091 844.762C625.891 874.362 579.291 893.662 532.391 900.462C518.291 902.562 503.791 903.562 488.491 903.562ZM477.491 180.462C477.191 180.462 476.791 180.462 476.491 180.462C413.891 180.762 354.391 211.062 294.791 272.962C235.791 334.162 198.791 425.862 178.191 491.962C166.191 530.362 157.291 568.462 153.291 599.062C148.691 633.662 149.791 666.262 156.591 695.762C159.891 710.262 164.491 724.162 170.391 736.862C195.691 792.362 250.391 839.462 324.391 869.362C359.491 883.462 396.691 893.362 435.091 898.562C470.791 903.362 502.591 903.662 532.391 899.362C579.091 892.562 625.491 873.462 666.591 843.962C762.091 775.762 820.291 656.762 814.891 540.762C811.891 473.462 790.091 404.062 753.491 345.162C725.691 300.362 691.691 265.362 652.491 241.362C585.891 200.362 528.691 180.462 477.491 180.462Z" fill="url(#paint9_linear_1_794)" stroke="#DFECEF" stroke-width="2" mask="url(#path-10-inside-10_1_794)"/>
</g>
</g>
<g opacity="0.4074">
<g opacity="0.4074">
<mask id="path-11-inside-11_1_794" fill="white">
<path d="M500.291 899.561C482.691 899.561 464.191 898.161 444.291 895.261C406.791 889.761 370.491 879.961 336.391 866.061C264.291 836.561 210.491 790.761 185.091 736.861C179.191 724.461 174.491 710.961 170.991 696.861C163.891 667.861 162.191 636.161 166.191 602.561C169.691 573.061 178.191 535.961 190.091 498.161C206.691 445.461 243.891 347.761 305.391 285.761C365.491 225.261 421.991 197.061 482.991 197.061C483.291 197.061 483.491 197.061 483.791 197.061C534.191 197.261 588.591 216.661 654.791 258.161C692.591 281.761 725.491 315.661 752.691 358.961C788.591 416.061 810.191 483.261 813.591 547.961C819.691 660.561 763.591 776.361 670.691 842.961C630.291 872.061 584.891 890.761 539.391 897.061C526.791 898.661 513.791 899.561 500.291 899.561ZM483.091 198.261C422.391 198.261 366.191 226.361 306.291 286.561C244.891 348.361 207.891 445.861 191.191 498.461C179.291 536.261 170.791 573.261 167.291 602.661C163.391 636.061 164.991 667.661 172.091 696.461C175.491 710.461 180.291 723.861 186.091 736.261C211.391 789.861 264.991 835.561 336.791 864.861C370.791 878.761 407.091 888.561 444.491 894.061C479.491 899.161 510.491 899.761 539.191 895.861C584.591 889.661 629.791 871.061 669.991 842.061C762.591 775.661 818.491 660.261 812.491 548.061C809.191 483.561 787.591 416.661 751.791 359.661C724.691 316.461 691.891 282.661 654.291 259.161C588.291 217.761 534.091 198.461 483.891 198.261C483.591 198.261 483.291 198.261 483.091 198.261Z"/>
</mask>
<path d="M500.291 899.561C482.691 899.561 464.191 898.161 444.291 895.261C406.791 889.761 370.491 879.961 336.391 866.061C264.291 836.561 210.491 790.761 185.091 736.861C179.191 724.461 174.491 710.961 170.991 696.861C163.891 667.861 162.191 636.161 166.191 602.561C169.691 573.061 178.191 535.961 190.091 498.161C206.691 445.461 243.891 347.761 305.391 285.761C365.491 225.261 421.991 197.061 482.991 197.061C483.291 197.061 483.491 197.061 483.791 197.061C534.191 197.261 588.591 216.661 654.791 258.161C692.591 281.761 725.491 315.661 752.691 358.961C788.591 416.061 810.191 483.261 813.591 547.961C819.691 660.561 763.591 776.361 670.691 842.961C630.291 872.061 584.891 890.761 539.391 897.061C526.791 898.661 513.791 899.561 500.291 899.561ZM483.091 198.261C422.391 198.261 366.191 226.361 306.291 286.561C244.891 348.361 207.891 445.861 191.191 498.461C179.291 536.261 170.791 573.261 167.291 602.661C163.391 636.061 164.991 667.661 172.091 696.461C175.491 710.461 180.291 723.861 186.091 736.261C211.391 789.861 264.991 835.561 336.791 864.861C370.791 878.761 407.091 888.561 444.491 894.061C479.491 899.161 510.491 899.761 539.191 895.861C584.591 889.661 629.791 871.061 669.991 842.061C762.591 775.661 818.491 660.261 812.491 548.061C809.191 483.561 787.591 416.661 751.791 359.661C724.691 316.461 691.891 282.661 654.291 259.161C588.291 217.761 534.091 198.461 483.891 198.261C483.591 198.261 483.291 198.261 483.091 198.261Z" fill="url(#paint10_linear_1_794)" stroke="#DFECEF" stroke-width="2" mask="url(#path-11-inside-11_1_794)"/>
</g>
</g>
<g opacity="0.4444">
<g opacity="0.4444">
<mask id="path-12-inside-12_1_794" fill="white">
<path d="M511.891 895.561C493.791 895.561 474.591 893.961 453.791 890.661C417.291 884.861 381.991 875.061 348.891 861.461C278.891 832.561 226.291 788.061 200.891 736.261C194.991 724.261 190.191 711.261 186.591 697.661C178.991 669.361 176.891 638.561 180.191 606.261C183.091 577.861 191.291 541.761 203.091 504.661C219.391 453.461 255.991 358.661 316.891 299.361C376.891 240.961 432.291 214.061 491.091 214.861C539.591 215.461 592.191 234.961 656.491 275.961C692.791 298.961 724.491 331.761 750.891 373.461C785.991 428.761 807.391 493.361 811.091 555.261C817.891 663.961 764.091 776.061 673.991 840.961C634.491 869.561 590.291 887.761 546.091 893.361C535.191 894.861 523.791 895.561 511.891 895.561ZM488.691 216.061C431.091 216.061 376.691 242.861 317.791 300.261C256.991 359.261 220.591 453.861 204.291 504.961C192.491 541.961 184.391 577.961 181.391 606.261C178.091 638.461 180.191 669.061 187.691 697.261C191.291 710.861 196.091 723.761 201.991 735.661C227.291 787.261 279.691 831.461 349.391 860.361C382.391 873.961 417.591 883.761 453.991 889.561C488.291 894.961 518.391 895.861 545.991 892.361C589.991 886.761 634.091 868.661 673.391 840.161C763.091 775.561 816.791 663.761 809.991 555.461C806.291 493.661 784.991 429.361 749.991 374.161C723.691 332.661 692.091 299.961 655.891 277.061C591.791 236.061 539.391 216.761 491.091 216.061C490.291 216.061 489.491 216.061 488.691 216.061Z"/>
</mask>
<path d="M511.891 895.561C493.791 895.561 474.591 893.961 453.791 890.661C417.291 884.861 381.991 875.061 348.891 861.461C278.891 832.561 226.291 788.061 200.891 736.261C194.991 724.261 190.191 711.261 186.591 697.661C178.991 669.361 176.891 638.561 180.191 606.261C183.091 577.861 191.291 541.761 203.091 504.661C219.391 453.461 255.991 358.661 316.891 299.361C376.891 240.961 432.291 214.061 491.091 214.861C539.591 215.461 592.191 234.961 656.491 275.961C692.791 298.961 724.491 331.761 750.891 373.461C785.991 428.761 807.391 493.361 811.091 555.261C817.891 663.961 764.091 776.061 673.991 840.961C634.491 869.561 590.291 887.761 546.091 893.361C535.191 894.861 523.791 895.561 511.891 895.561ZM488.691 216.061C431.091 216.061 376.691 242.861 317.791 300.261C256.991 359.261 220.591 453.861 204.291 504.961C192.491 541.961 184.391 577.961 181.391 606.261C178.091 638.461 180.191 669.061 187.691 697.261C191.291 710.861 196.091 723.761 201.991 735.661C227.291 787.261 279.691 831.461 349.391 860.361C382.391 873.961 417.591 883.761 453.991 889.561C488.291 894.961 518.391 895.861 545.991 892.361C589.991 886.761 634.091 868.661 673.391 840.161C763.091 775.561 816.791 663.761 809.991 555.461C806.291 493.661 784.991 429.361 749.991 374.161C723.691 332.661 692.091 299.961 655.891 277.061C591.791 236.061 539.391 216.761 491.091 216.061C490.291 216.061 489.491 216.061 488.691 216.061Z" fill="url(#paint11_linear_1_794)" stroke="#DFECEF" stroke-width="2" mask="url(#path-12-inside-12_1_794)"/>
</g>
</g>
<g opacity="0.4815">
<g opacity="0.4815">
<mask id="path-13-inside-13_1_794" fill="white">
<path d="M523.091 891.762C504.791 891.762 485.191 889.962 463.391 886.162C427.891 880.162 393.691 870.262 361.591 856.862C293.691 828.462 242.291 785.462 216.891 735.562C210.991 723.962 206.091 711.462 202.291 698.362C194.291 670.662 191.691 640.862 194.391 609.862C196.791 582.462 204.591 547.462 216.291 511.162C232.391 461.362 268.291 369.462 328.491 312.962C365.391 278.362 422.491 232.662 494.591 232.662C495.891 232.662 497.191 232.662 498.491 232.662C545.091 233.762 595.891 253.162 658.291 293.862C692.991 316.362 723.591 348.062 749.291 388.062C783.691 441.562 804.791 503.562 808.791 562.762C816.191 667.562 764.691 776.062 677.591 839.162C638.991 867.262 595.991 884.862 553.091 889.962C543.391 891.162 533.491 891.762 523.091 891.762ZM494.591 233.762C422.891 233.762 365.991 279.262 329.291 313.762C269.291 370.162 233.391 461.862 217.391 511.462C205.691 547.662 197.891 582.662 195.491 609.962C192.791 640.862 195.391 670.562 203.391 698.062C207.191 711.162 211.991 723.562 217.891 735.062C243.191 784.662 294.391 827.562 362.091 855.762C394.091 869.062 428.291 878.962 463.591 884.962C497.691 890.762 526.091 891.962 552.991 888.762C595.691 883.662 638.491 866.162 676.891 838.162C763.791 775.262 815.091 667.162 807.691 562.762C803.691 503.762 782.591 441.962 748.291 388.662C722.791 348.862 692.291 317.262 657.691 294.862C595.491 254.362 544.891 234.962 498.491 233.862C497.191 233.762 495.891 233.762 494.591 233.762Z"/>
</mask>
<path d="M523.091 891.762C504.791 891.762 485.191 889.962 463.391 886.162C427.891 880.162 393.691 870.262 361.591 856.862C293.691 828.462 242.291 785.462 216.891 735.562C210.991 723.962 206.091 711.462 202.291 698.362C194.291 670.662 191.691 640.862 194.391 609.862C196.791 582.462 204.591 547.462 216.291 511.162C232.391 461.362 268.291 369.462 328.491 312.962C365.391 278.362 422.491 232.662 494.591 232.662C495.891 232.662 497.191 232.662 498.491 232.662C545.091 233.762 595.891 253.162 658.291 293.862C692.991 316.362 723.591 348.062 749.291 388.062C783.691 441.562 804.791 503.562 808.791 562.762C816.191 667.562 764.691 776.062 677.591 839.162C638.991 867.262 595.991 884.862 553.091 889.962C543.391 891.162 533.491 891.762 523.091 891.762ZM494.591 233.762C422.891 233.762 365.991 279.262 329.291 313.762C269.291 370.162 233.391 461.862 217.391 511.462C205.691 547.662 197.891 582.662 195.491 609.962C192.791 640.862 195.391 670.562 203.391 698.062C207.191 711.162 211.991 723.562 217.891 735.062C243.191 784.662 294.391 827.562 362.091 855.762C394.091 869.062 428.291 878.962 463.591 884.962C497.691 890.762 526.091 891.962 552.991 888.762C595.691 883.662 638.491 866.162 676.891 838.162C763.791 775.262 815.091 667.162 807.691 562.762C803.691 503.762 782.591 441.962 748.291 388.662C722.791 348.862 692.291 317.262 657.691 294.862C595.491 254.362 544.891 234.962 498.491 233.862C497.191 233.762 495.891 233.762 494.591 233.762Z" fill="url(#paint12_linear_1_794)" stroke="#DFECEF" stroke-width="2" mask="url(#path-13-inside-13_1_794)"/>
</g>
</g>
<g opacity="0.5185">
<g opacity="0.5185">
<mask id="path-14-inside-14_1_794" fill="white">
<path d="M534.391 887.861C515.791 887.861 495.691 885.761 472.991 881.661C438.491 875.361 405.291 865.461 374.291 852.361C327.691 832.661 265.391 796.361 232.891 735.061C226.991 723.961 221.991 711.861 217.991 699.261C209.591 672.261 206.391 643.461 208.591 613.561C210.491 587.161 217.891 553.161 229.491 517.661C245.291 469.361 280.591 380.361 340.091 326.561C379.491 290.861 433.091 250.361 500.391 250.361C502.291 250.361 504.091 250.361 505.991 250.461C551.391 251.961 598.891 270.861 660.291 311.661C693.491 333.661 722.891 364.161 747.791 402.461C781.391 454.161 802.291 513.661 806.691 569.961C814.791 670.661 765.591 775.561 681.291 837.161C643.491 864.861 601.591 881.861 560.191 886.361C551.791 887.361 543.191 887.861 534.391 887.861ZM500.391 251.461C433.591 251.461 380.191 291.761 340.891 327.361C281.591 380.961 246.291 469.861 230.591 517.961C219.091 553.261 211.691 587.261 209.691 613.561C207.491 643.261 210.691 671.961 219.091 698.861C222.991 711.461 227.991 723.461 233.891 734.461C266.291 795.461 328.391 831.661 374.791 851.261C405.791 864.361 438.891 874.161 473.291 880.461C506.691 886.561 534.291 888.161 560.091 885.261C601.291 880.761 642.891 863.761 680.591 836.261C764.591 774.861 813.591 670.361 805.491 570.061C801.191 513.861 780.291 454.561 746.791 403.061C721.991 364.861 692.691 334.461 659.691 312.561C598.591 271.861 551.191 253.061 505.991 251.561C503.991 251.561 502.191 251.461 500.391 251.461Z"/>
</mask>
<path d="M534.391 887.861C515.791 887.861 495.691 885.761 472.991 881.661C438.491 875.361 405.291 865.461 374.291 852.361C327.691 832.661 265.391 796.361 232.891 735.061C226.991 723.961 221.991 711.861 217.991 699.261C209.591 672.261 206.391 643.461 208.591 613.561C210.491 587.161 217.891 553.161 229.491 517.661C245.291 469.361 280.591 380.361 340.091 326.561C379.491 290.861 433.091 250.361 500.391 250.361C502.291 250.361 504.091 250.361 505.991 250.461C551.391 251.961 598.891 270.861 660.291 311.661C693.491 333.661 722.891 364.161 747.791 402.461C781.391 454.161 802.291 513.661 806.691 569.961C814.791 670.661 765.591 775.561 681.291 837.161C643.491 864.861 601.591 881.861 560.191 886.361C551.791 887.361 543.191 887.861 534.391 887.861ZM500.391 251.461C433.591 251.461 380.191 291.761 340.891 327.361C281.591 380.961 246.291 469.861 230.591 517.961C219.091 553.261 211.691 587.261 209.691 613.561C207.491 643.261 210.691 671.961 219.091 698.861C222.991 711.461 227.991 723.461 233.891 734.461C266.291 795.461 328.391 831.661 374.791 851.261C405.791 864.361 438.891 874.161 473.291 880.461C506.691 886.561 534.291 888.161 560.091 885.261C601.291 880.761 642.891 863.761 680.591 836.261C764.591 774.861 813.591 670.361 805.491 570.061C801.191 513.861 780.291 454.561 746.791 403.061C721.991 364.861 692.691 334.461 659.691 312.561C598.591 271.861 551.191 253.061 505.991 251.561C503.991 251.561 502.191 251.461 500.391 251.461Z" fill="url(#paint13_linear_1_794)" stroke="#DFECEF" stroke-width="2" mask="url(#path-14-inside-14_1_794)"/>
</g>
</g>
<g opacity="0.5556">
<g opacity="0.5556">
<mask id="path-15-inside-15_1_794" fill="white">
<path d="M545.391 883.961C526.591 883.961 506.091 881.661 482.591 877.061C449.191 870.461 416.991 860.561 386.991 847.761C341.891 828.461 281.391 793.161 248.891 734.361C242.991 723.661 237.891 712.061 233.791 699.961C224.891 673.661 221.191 645.761 222.791 617.161C224.191 591.261 231.091 559.161 242.691 524.161C255.191 486.461 290.791 393.161 351.791 340.161C392.091 305.161 446.991 265.361 513.491 268.261C556.991 270.161 602.791 289.061 662.191 329.461C693.891 350.861 722.091 380.361 746.191 416.961C779.491 467.561 799.691 522.961 804.391 577.361C813.191 674.161 766.291 775.461 684.891 835.261C647.991 862.461 607.291 878.861 567.291 882.861C560.091 883.561 552.891 883.961 545.391 883.961ZM506.391 269.161C443.391 269.161 391.191 307.261 352.491 340.861C291.691 393.661 256.191 486.761 243.791 524.361C232.291 559.261 225.391 591.261 223.891 617.061C222.291 645.561 225.991 673.261 234.791 699.461C238.891 711.561 243.891 723.061 249.791 733.661C282.191 792.161 342.491 827.361 387.391 846.561C417.291 859.361 449.491 869.161 482.791 875.761C515.491 882.261 542.191 884.061 566.991 881.561C606.791 877.561 647.291 861.161 684.091 834.161C765.191 774.561 811.891 673.661 803.191 577.261C798.491 523.061 778.391 467.761 745.191 417.361C721.191 380.861 693.091 351.561 661.491 330.161C602.291 289.861 556.591 271.061 513.391 269.161C510.991 269.261 508.691 269.161 506.391 269.161Z"/>
</mask>
<path d="M545.391 883.961C526.591 883.961 506.091 881.661 482.591 877.061C449.191 870.461 416.991 860.561 386.991 847.761C341.891 828.461 281.391 793.161 248.891 734.361C242.991 723.661 237.891 712.061 233.791 699.961C224.891 673.661 221.191 645.761 222.791 617.161C224.191 591.261 231.091 559.161 242.691 524.161C255.191 486.461 290.791 393.161 351.791 340.161C392.091 305.161 446.991 265.361 513.491 268.261C556.991 270.161 602.791 289.061 662.191 329.461C693.891 350.861 722.091 380.361 746.191 416.961C779.491 467.561 799.691 522.961 804.391 577.361C813.191 674.161 766.291 775.461 684.891 835.261C647.991 862.461 607.291 878.861 567.291 882.861C560.091 883.561 552.891 883.961 545.391 883.961ZM506.391 269.161C443.391 269.161 391.191 307.261 352.491 340.861C291.691 393.661 256.191 486.761 243.791 524.361C232.291 559.261 225.391 591.261 223.891 617.061C222.291 645.561 225.991 673.261 234.791 699.461C238.891 711.561 243.891 723.061 249.791 733.661C282.191 792.161 342.491 827.361 387.391 846.561C417.291 859.361 449.491 869.161 482.791 875.761C515.491 882.261 542.191 884.061 566.991 881.561C606.791 877.561 647.291 861.161 684.091 834.161C765.191 774.561 811.891 673.661 803.191 577.261C798.491 523.061 778.391 467.761 745.191 417.361C721.191 380.861 693.091 351.561 661.491 330.161C602.291 289.861 556.591 271.061 513.391 269.161C510.991 269.261 508.691 269.161 506.391 269.161Z" fill="url(#paint14_linear_1_794)" stroke="#DFECEF" stroke-width="2" mask="url(#path-15-inside-15_1_794)"/>
</g>
</g>
<g opacity="0.5926">
<g opacity="0.5926">
<mask id="path-16-inside-16_1_794" fill="white">
<path d="M555.891 880.161C537.091 880.161 516.691 877.661 492.291 872.461C459.791 865.561 428.691 855.761 399.691 843.161C356.091 824.261 297.291 789.961 264.791 733.661C258.891 723.361 253.691 712.261 249.391 700.561C239.991 674.961 235.791 647.961 236.891 620.561C237.891 595.561 244.391 564.361 255.791 530.361C268.091 493.861 303.091 403.561 363.291 353.361C405.891 317.961 457.891 282.161 520.791 285.661C562.391 287.961 606.491 306.861 663.891 346.961C693.991 367.861 721.091 396.161 744.391 431.161C776.991 479.861 796.891 532.861 801.891 584.461C806.591 630.561 797.991 678.561 777.091 723.461C756.691 767.261 725.891 805.261 688.191 833.161C652.191 859.761 612.691 875.761 573.991 879.161C568.191 879.861 562.091 880.161 555.891 880.161ZM512.291 286.861C453.591 286.861 404.591 320.861 364.091 354.461C304.091 404.361 269.191 494.461 256.891 530.861C245.491 564.761 238.991 595.761 238.091 620.661C236.991 647.961 241.191 674.661 250.491 700.161C254.691 711.761 259.891 722.861 265.791 733.061C298.091 789.061 356.691 823.261 400.091 842.061C428.991 854.561 460.091 864.361 492.491 871.261C524.891 878.161 550.091 880.261 573.991 878.161C612.491 874.661 651.791 858.861 687.591 832.361C765.791 774.461 810.191 677.261 800.791 584.761C795.791 533.361 775.891 480.561 743.391 432.061C720.191 397.261 693.191 369.061 663.191 348.261C605.991 308.361 561.991 289.461 520.691 287.161C517.991 286.961 515.091 286.861 512.291 286.861Z"/>
</mask>
<path d="M555.891 880.161C537.091 880.161 516.691 877.661 492.291 872.461C459.791 865.561 428.691 855.761 399.691 843.161C356.091 824.261 297.291 789.961 264.791 733.661C258.891 723.361 253.691 712.261 249.391 700.561C239.991 674.961 235.791 647.961 236.891 620.561C237.891 595.561 244.391 564.361 255.791 530.361C268.091 493.861 303.091 403.561 363.291 353.361C405.891 317.961 457.891 282.161 520.791 285.661C562.391 287.961 606.491 306.861 663.891 346.961C693.991 367.861 721.091 396.161 744.391 431.161C776.991 479.861 796.891 532.861 801.891 584.461C806.591 630.561 797.991 678.561 777.091 723.461C756.691 767.261 725.891 805.261 688.191 833.161C652.191 859.761 612.691 875.761 573.991 879.161C568.191 879.861 562.091 880.161 555.891 880.161ZM512.291 286.861C453.591 286.861 404.591 320.861 364.091 354.461C304.091 404.361 269.191 494.461 256.891 530.861C245.491 564.761 238.991 595.761 238.091 620.661C236.991 647.961 241.191 674.661 250.491 700.161C254.691 711.761 259.891 722.861 265.791 733.061C298.091 789.061 356.691 823.261 400.091 842.061C428.991 854.561 460.091 864.361 492.491 871.261C524.891 878.161 550.091 880.261 573.991 878.161C612.491 874.661 651.791 858.861 687.591 832.361C765.791 774.461 810.191 677.261 800.791 584.761C795.791 533.361 775.891 480.561 743.391 432.061C720.191 397.261 693.191 369.061 663.191 348.261C605.991 308.361 561.991 289.461 520.691 287.161C517.991 286.961 515.091 286.861 512.291 286.861Z" fill="url(#paint15_linear_1_794)" stroke="#DFECEF" stroke-width="2" mask="url(#path-16-inside-16_1_794)"/>
</g>
</g>
<g opacity="0.6296">
<g opacity="0.6296">
<mask id="path-17-inside-17_1_794" fill="white">
<path d="M566.591 876.363C542.491 876.363 519.791 871.963 501.891 867.863C470.391 860.663 440.291 850.863 412.391 838.563C370.291 820.063 313.291 786.763 280.791 733.063C274.791 723.163 269.591 712.563 265.191 701.363C255.291 676.363 250.591 650.463 251.191 624.263C251.691 600.063 257.891 569.863 269.091 536.963C281.091 501.663 315.591 414.363 375.091 367.063C417.491 333.363 468.791 299.463 528.391 303.563C568.691 306.363 609.791 324.663 665.891 364.863C694.491 385.263 720.391 412.363 742.891 445.663C774.791 492.563 794.391 543.063 799.791 591.763C804.791 635.863 796.991 682.063 777.091 725.363C757.691 767.563 728.291 804.163 691.991 831.163C656.891 857.263 618.591 872.663 581.191 875.563C576.291 876.163 571.391 876.363 566.591 876.363ZM518.591 304.463C463.491 304.463 415.691 336.363 375.791 367.963C316.591 415.063 282.191 502.063 270.191 537.263C258.991 570.063 252.791 600.163 252.391 624.163C251.891 650.263 256.591 676.063 266.391 700.863C270.791 711.963 275.991 722.563 281.891 732.363C314.191 785.763 370.991 818.963 412.891 837.463C440.791 849.663 470.791 859.463 502.191 866.663C523.491 871.563 551.791 876.863 581.091 874.563C618.291 871.663 656.391 856.363 691.291 830.363C766.591 774.263 808.791 680.663 798.691 591.963C793.391 543.463 773.791 493.063 741.991 446.363C719.591 413.163 693.691 386.063 665.291 365.863C609.391 325.763 568.391 307.463 528.391 304.763C525.091 304.563 521.791 304.463 518.591 304.463Z"/>
</mask>
<path d="M566.591 876.363C542.491 876.363 519.791 871.963 501.891 867.863C470.391 860.663 440.291 850.863 412.391 838.563C370.291 820.063 313.291 786.763 280.791 733.063C274.791 723.163 269.591 712.563 265.191 701.363C255.291 676.363 250.591 650.463 251.191 624.263C251.691 600.063 257.891 569.863 269.091 536.963C281.091 501.663 315.591 414.363 375.091 367.063C417.491 333.363 468.791 299.463 528.391 303.563C568.691 306.363 609.791 324.663 665.891 364.863C694.491 385.263 720.391 412.363 742.891 445.663C774.791 492.563 794.391 543.063 799.791 591.763C804.791 635.863 796.991 682.063 777.091 725.363C757.691 767.563 728.291 804.163 691.991 831.163C656.891 857.263 618.591 872.663 581.191 875.563C576.291 876.163 571.391 876.363 566.591 876.363ZM518.591 304.463C463.491 304.463 415.691 336.363 375.791 367.963C316.591 415.063 282.191 502.063 270.191 537.263C258.991 570.063 252.791 600.163 252.391 624.163C251.891 650.263 256.591 676.063 266.391 700.863C270.791 711.963 275.991 722.563 281.891 732.363C314.191 785.763 370.991 818.963 412.891 837.463C440.791 849.663 470.791 859.463 502.191 866.663C523.491 871.563 551.791 876.863 581.091 874.563C618.291 871.663 656.391 856.363 691.291 830.363C766.591 774.263 808.791 680.663 798.691 591.963C793.391 543.463 773.791 493.063 741.991 446.363C719.591 413.163 693.691 386.063 665.291 365.863C609.391 325.763 568.391 307.463 528.391 304.763C525.091 304.563 521.791 304.463 518.591 304.463Z" fill="url(#paint16_linear_1_794)" stroke="#DFECEF" stroke-width="2" mask="url(#path-17-inside-17_1_794)"/>
</g>
</g>
<g opacity="0.6667">
<g opacity="0.6667">
<mask id="path-18-inside-18_1_794" fill="white">
<path d="M576.991 872.561C552.891 872.561 529.691 867.761 511.591 863.261C481.091 855.761 451.991 845.961 425.191 833.961C366.891 807.961 322.591 772.861 296.891 732.361C290.891 722.961 285.591 712.761 280.991 702.061C270.691 677.861 265.491 652.861 265.491 627.861C265.491 604.461 271.391 575.261 282.391 543.461C294.191 509.261 328.091 425.061 386.791 380.661C431.091 347.161 479.791 316.761 535.991 321.361C584.291 325.261 629.791 354.561 667.991 382.761C695.091 402.561 719.791 428.661 741.591 460.261C772.691 505.361 792.191 553.461 797.791 599.261C803.191 641.461 795.991 685.761 777.091 727.461C758.691 768.061 730.591 803.261 695.791 829.461C661.691 855.061 624.491 869.861 588.391 872.261C584.491 872.461 580.791 872.561 576.991 872.561ZM524.691 322.061C473.591 322.061 428.691 350.461 387.491 381.561C329.091 425.761 295.291 509.761 283.491 543.761C272.491 575.461 266.691 604.561 266.691 627.861C266.691 652.761 271.891 677.561 282.191 701.661C286.691 712.261 291.991 722.361 297.991 731.761C323.491 772.061 367.691 807.061 425.791 832.861C452.591 844.761 481.591 854.561 511.991 862.061C532.791 867.161 560.291 872.761 588.291 870.961C624.191 868.561 661.091 853.861 695.091 828.361C766.291 774.861 807.091 682.861 796.491 599.361C790.891 553.761 771.491 505.861 740.491 460.861C718.791 429.361 694.191 403.361 667.191 383.661C629.191 355.661 583.791 326.461 535.791 322.561C532.091 322.261 528.391 322.061 524.691 322.061Z"/>
</mask>
<path d="M576.991 872.561C552.891 872.561 529.691 867.761 511.591 863.261C481.091 855.761 451.991 845.961 425.191 833.961C366.891 807.961 322.591 772.861 296.891 732.361C290.891 722.961 285.591 712.761 280.991 702.061C270.691 677.861 265.491 652.861 265.491 627.861C265.491 604.461 271.391 575.261 282.391 543.461C294.191 509.261 328.091 425.061 386.791 380.661C431.091 347.161 479.791 316.761 535.991 321.361C584.291 325.261 629.791 354.561 667.991 382.761C695.091 402.561 719.791 428.661 741.591 460.261C772.691 505.361 792.191 553.461 797.791 599.261C803.191 641.461 795.991 685.761 777.091 727.461C758.691 768.061 730.591 803.261 695.791 829.461C661.691 855.061 624.491 869.861 588.391 872.261C584.491 872.461 580.791 872.561 576.991 872.561ZM524.691 322.061C473.591 322.061 428.691 350.461 387.491 381.561C329.091 425.761 295.291 509.761 283.491 543.761C272.491 575.461 266.691 604.561 266.691 627.861C266.691 652.761 271.891 677.561 282.191 701.661C286.691 712.261 291.991 722.361 297.991 731.761C323.491 772.061 367.691 807.061 425.791 832.861C452.591 844.761 481.591 854.561 511.991 862.061C532.791 867.161 560.291 872.761 588.291 870.961C624.191 868.561 661.091 853.861 695.091 828.361C766.291 774.861 807.091 682.861 796.491 599.361C790.891 553.761 771.491 505.861 740.491 460.861C718.791 429.361 694.191 403.361 667.191 383.661C629.191 355.661 583.791 326.461 535.791 322.561C532.091 322.261 528.391 322.061 524.691 322.061Z" fill="url(#paint17_linear_1_794)" stroke="#DFECEF" stroke-width="2" mask="url(#path-18-inside-18_1_794)"/>
</g>
</g>
<g opacity="0.7037">
<g opacity="0.7037">
<mask id="path-19-inside-19_1_794" fill="white">
<path d="M586.891 868.861C563.291 868.861 540.691 863.761 521.391 858.661C491.891 850.861 463.791 840.961 437.991 829.361C380.991 803.561 338.991 770.761 312.991 731.761C306.991 722.761 301.591 713.061 296.891 702.861C285.991 679.261 280.191 655.261 279.791 631.461C279.391 608.761 284.891 580.561 295.691 549.861C304.791 524.161 338.991 436.761 398.491 394.161C439.491 364.761 487.991 333.761 543.491 339.061C589.391 343.461 631.391 371.161 669.891 400.461C695.391 419.761 718.991 444.661 739.991 474.661C770.891 518.561 789.591 562.961 795.491 606.461C801.191 646.761 794.691 689.161 776.791 729.261C759.391 768.261 732.591 802.161 699.291 827.361C676.191 844.861 639.391 866.261 595.291 868.561C592.591 868.761 589.691 868.861 586.891 868.861ZM530.891 339.661C480.991 339.661 436.891 368.061 399.191 395.061C339.991 437.461 305.791 524.561 296.791 550.161C285.991 580.761 280.491 608.861 280.991 631.361C281.491 655.061 287.191 678.861 297.991 702.261C302.691 712.361 308.091 722.061 313.991 730.961C339.791 769.761 381.691 802.461 438.491 828.161C464.191 839.761 492.191 849.561 521.691 857.361C543.291 863.061 568.891 868.661 595.391 867.261C639.191 864.861 675.791 843.661 698.791 826.261C767.291 774.461 805.691 686.161 794.491 606.461C788.591 563.061 769.891 518.861 739.191 475.161C718.291 445.361 694.791 420.461 669.391 401.261C630.991 372.061 589.191 344.461 543.591 340.061C539.191 339.861 535.091 339.661 530.891 339.661Z"/>
</mask>
<path d="M586.891 868.861C563.291 868.861 540.691 863.761 521.391 858.661C491.891 850.861 463.791 840.961 437.991 829.361C380.991 803.561 338.991 770.761 312.991 731.761C306.991 722.761 301.591 713.061 296.891 702.861C285.991 679.261 280.191 655.261 279.791 631.461C279.391 608.761 284.891 580.561 295.691 549.861C304.791 524.161 338.991 436.761 398.491 394.161C439.491 364.761 487.991 333.761 543.491 339.061C589.391 343.461 631.391 371.161 669.891 400.461C695.391 419.761 718.991 444.661 739.991 474.661C770.891 518.561 789.591 562.961 795.491 606.461C801.191 646.761 794.691 689.161 776.791 729.261C759.391 768.261 732.591 802.161 699.291 827.361C676.191 844.861 639.391 866.261 595.291 868.561C592.591 868.761 589.691 868.861 586.891 868.861ZM530.891 339.661C480.991 339.661 436.891 368.061 399.191 395.061C339.991 437.461 305.791 524.561 296.791 550.161C285.991 580.761 280.491 608.861 280.991 631.361C281.491 655.061 287.191 678.861 297.991 702.261C302.691 712.361 308.091 722.061 313.991 730.961C339.791 769.761 381.691 802.461 438.491 828.161C464.191 839.761 492.191 849.561 521.691 857.361C543.291 863.061 568.891 868.661 595.391 867.261C639.191 864.861 675.791 843.661 698.791 826.261C767.291 774.461 805.691 686.161 794.491 606.461C788.591 563.061 769.891 518.861 739.191 475.161C718.291 445.361 694.791 420.461 669.391 401.261C630.991 372.061 589.191 344.461 543.591 340.061C539.191 339.861 535.091 339.661 530.891 339.661Z" fill="url(#paint18_linear_1_794)" stroke="#DFECEF" stroke-width="2" mask="url(#path-19-inside-19_1_794)"/>
</g>
</g>
<g opacity="0.7407">
<g opacity="0.7407">
<mask id="path-20-inside-20_1_794" fill="white">
<path d="M596.591 865.161C573.491 865.161 551.591 859.861 531.191 854.061C502.591 845.961 475.591 836.061 450.891 824.761C395.991 799.561 355.091 768.061 329.191 731.061C323.191 722.461 317.691 713.261 312.791 703.561C301.291 680.761 295.091 657.661 294.091 635.061C293.191 613.161 298.291 585.861 308.991 556.361C317.891 531.561 351.691 447.361 410.291 407.761C452.991 378.861 499.091 351.161 551.091 356.961C594.791 361.761 634.991 389.361 671.891 418.361C695.891 437.061 718.291 460.961 738.491 489.161C768.691 531.261 787.191 573.261 793.391 613.861C805.391 690.161 769.091 775.161 703.091 825.461C680.691 842.561 644.991 863.361 602.491 865.061C600.491 865.061 598.491 865.161 596.591 865.161ZM537.191 357.161C491.091 357.161 449.691 382.361 410.891 408.561C352.591 447.961 318.991 531.861 310.091 556.561C299.491 585.961 294.391 613.061 295.291 634.861C296.191 657.361 302.491 680.261 313.791 702.961C318.591 712.561 324.091 721.761 330.091 730.361C355.791 767.161 396.591 798.561 451.291 823.661C475.991 834.961 502.891 844.761 531.391 852.861C553.491 859.161 577.291 864.761 602.491 863.761C644.691 862.061 680.091 841.361 702.391 824.361C767.991 774.261 804.091 689.661 792.191 613.861C785.991 573.461 767.591 531.661 737.491 489.661C717.391 461.461 695.091 437.761 671.091 419.061C634.291 390.161 594.291 362.661 550.891 357.861C546.291 357.461 541.691 357.161 537.191 357.161Z"/>
</mask>
<path d="M596.591 865.161C573.491 865.161 551.591 859.861 531.191 854.061C502.591 845.961 475.591 836.061 450.891 824.761C395.991 799.561 355.091 768.061 329.191 731.061C323.191 722.461 317.691 713.261 312.791 703.561C301.291 680.761 295.091 657.661 294.091 635.061C293.191 613.161 298.291 585.861 308.991 556.361C317.891 531.561 351.691 447.361 410.291 407.761C452.991 378.861 499.091 351.161 551.091 356.961C594.791 361.761 634.991 389.361 671.891 418.361C695.891 437.061 718.291 460.961 738.491 489.161C768.691 531.261 787.191 573.261 793.391 613.861C805.391 690.161 769.091 775.161 703.091 825.461C680.691 842.561 644.991 863.361 602.491 865.061C600.491 865.061 598.491 865.161 596.591 865.161ZM537.191 357.161C491.091 357.161 449.691 382.361 410.891 408.561C352.591 447.961 318.991 531.861 310.091 556.561C299.491 585.961 294.391 613.061 295.291 634.861C296.191 657.361 302.491 680.261 313.791 702.961C318.591 712.561 324.091 721.761 330.091 730.361C355.791 767.161 396.591 798.561 451.291 823.661C475.991 834.961 502.891 844.761 531.391 852.861C553.491 859.161 577.291 864.761 602.491 863.761C644.691 862.061 680.091 841.361 702.391 824.361C767.991 774.261 804.091 689.661 792.191 613.861C785.991 573.461 767.591 531.661 737.491 489.661C717.391 461.461 695.091 437.761 671.091 419.061C634.291 390.161 594.291 362.661 550.891 357.861C546.291 357.461 541.691 357.161 537.191 357.161Z" fill="url(#paint19_linear_1_794)" stroke="#DFECEF" stroke-width="2" mask="url(#path-20-inside-20_1_794)"/>
</g>
</g>
<g opacity="0.7778">
<g opacity="0.7778">
<mask id="path-21-inside-21_1_794" fill="white">
<path d="M606.191 861.462C583.491 861.462 561.391 855.762 540.891 849.462C513.191 840.962 487.291 831.162 463.691 820.162C410.891 795.462 371.091 765.262 345.291 730.362C339.191 722.162 333.591 713.362 328.691 704.262C316.691 682.162 309.891 660.062 308.491 638.562C307.091 617.362 311.891 591.062 322.391 562.662C331.191 538.762 364.491 457.762 422.091 421.162C466.391 393.062 510.091 368.362 558.691 374.562C597.891 379.562 633.091 402.762 673.891 436.062C696.391 454.262 717.591 476.962 736.991 503.562C766.591 543.862 784.791 583.462 791.191 621.162C803.791 693.562 769.891 774.962 706.791 823.562C684.991 840.362 650.491 860.562 609.591 861.562C608.491 861.462 607.291 861.462 606.191 861.462ZM543.591 374.662C501.191 374.662 462.191 397.062 422.691 422.062C365.291 458.462 332.191 539.162 323.491 562.962C313.091 591.162 308.291 617.262 309.691 638.362C311.091 659.662 317.791 681.662 329.791 703.562C334.691 712.662 340.291 721.462 346.291 729.562C371.991 764.262 411.691 794.362 464.191 818.962C487.691 829.962 513.591 839.762 541.191 848.162C562.691 854.762 585.891 860.762 609.591 860.062C650.191 858.962 684.491 838.962 706.091 822.262C768.891 773.962 802.591 693.062 790.091 620.962C783.691 583.462 765.591 544.062 736.091 503.862C716.791 477.362 695.591 454.762 673.191 436.562C632.491 403.362 597.491 380.262 558.491 375.362C553.491 374.962 548.491 374.662 543.591 374.662Z"/>
</mask>
<path d="M606.191 861.462C583.491 861.462 561.391 855.762 540.891 849.462C513.191 840.962 487.291 831.162 463.691 820.162C410.891 795.462 371.091 765.262 345.291 730.362C339.191 722.162 333.591 713.362 328.691 704.262C316.691 682.162 309.891 660.062 308.491 638.562C307.091 617.362 311.891 591.062 322.391 562.662C331.191 538.762 364.491 457.762 422.091 421.162C466.391 393.062 510.091 368.362 558.691 374.562C597.891 379.562 633.091 402.762 673.891 436.062C696.391 454.262 717.591 476.962 736.991 503.562C766.591 543.862 784.791 583.462 791.191 621.162C803.791 693.562 769.891 774.962 706.791 823.562C684.991 840.362 650.491 860.562 609.591 861.562C608.491 861.462 607.291 861.462 606.191 861.462ZM543.591 374.662C501.191 374.662 462.191 397.062 422.691 422.062C365.291 458.462 332.191 539.162 323.491 562.962C313.091 591.162 308.291 617.262 309.691 638.362C311.091 659.662 317.791 681.662 329.791 703.562C334.691 712.662 340.291 721.462 346.291 729.562C371.991 764.262 411.691 794.362 464.191 818.962C487.691 829.962 513.591 839.762 541.191 848.162C562.691 854.762 585.891 860.762 609.591 860.062C650.191 858.962 684.491 838.962 706.091 822.262C768.891 773.962 802.591 693.062 790.091 620.962C783.691 583.462 765.591 544.062 736.091 503.862C716.791 477.362 695.591 454.762 673.191 436.562C632.491 403.362 597.491 380.262 558.491 375.362C553.491 374.962 548.491 374.662 543.591 374.662Z" fill="url(#paint20_linear_1_794)" stroke="#DFECEF" stroke-width="2" mask="url(#path-21-inside-21_1_794)"/>
</g>
</g>
<g opacity="0.8148">
<g opacity="0.8148">
<mask id="path-22-inside-22_1_794" fill="white">
<path d="M615.491 857.762C592.191 857.762 569.791 851.062 550.691 844.762C523.591 835.862 499.291 826.262 476.591 815.462C425.891 791.362 387.191 762.462 361.491 729.662C355.391 721.862 349.691 713.562 344.591 704.962C331.791 683.362 324.691 662.762 322.791 642.162C320.991 621.562 325.391 596.262 335.691 569.162C344.391 546.162 377.191 468.262 433.891 434.762C473.091 411.562 517.491 385.262 566.391 392.362C607.791 398.362 643.291 426.062 676.091 453.862C696.991 471.462 717.091 493.062 735.691 517.962C765.091 557.062 782.591 593.162 789.191 628.362C802.491 696.962 770.891 774.562 710.591 821.462C689.491 837.862 656.191 857.462 616.791 857.862C616.291 857.762 615.891 857.762 615.491 857.762ZM549.891 392.162C507.691 392.162 468.991 415.062 434.391 435.562C377.991 468.962 345.391 546.462 336.691 569.462C326.491 596.462 322.091 621.562 323.891 641.962C325.691 662.462 332.791 682.862 345.491 704.362C350.591 712.962 356.191 721.262 362.291 728.962C387.891 761.662 426.491 790.462 476.991 814.462C499.691 825.262 523.891 834.762 550.991 843.762C570.491 850.162 593.191 857.062 616.791 856.662C655.791 856.262 688.891 836.762 709.891 820.462C769.791 773.862 801.191 696.662 787.991 628.462C781.391 593.462 763.891 557.462 734.691 518.562C716.091 493.762 696.091 472.162 675.291 454.562C642.591 426.862 607.291 399.262 566.191 393.262C560.691 392.562 555.291 392.162 549.891 392.162Z"/>
</mask>
<path d="M615.491 857.762C592.191 857.762 569.791 851.062 550.691 844.762C523.591 835.862 499.291 826.262 476.591 815.462C425.891 791.362 387.191 762.462 361.491 729.662C355.391 721.862 349.691 713.562 344.591 704.962C331.791 683.362 324.691 662.762 322.791 642.162C320.991 621.562 325.391 596.262 335.691 569.162C344.391 546.162 377.191 468.262 433.891 434.762C473.091 411.562 517.491 385.262 566.391 392.362C607.791 398.362 643.291 426.062 676.091 453.862C696.991 471.462 717.091 493.062 735.691 517.962C765.091 557.062 782.591 593.162 789.191 628.362C802.491 696.962 770.891 774.562 710.591 821.462C689.491 837.862 656.191 857.462 616.791 857.862C616.291 857.762 615.891 857.762 615.491 857.762ZM549.891 392.162C507.691 392.162 468.991 415.062 434.391 435.562C377.991 468.962 345.391 546.462 336.691 569.462C326.491 596.462 322.091 621.562 323.891 641.962C325.691 662.462 332.791 682.862 345.491 704.362C350.591 712.962 356.191 721.262 362.291 728.962C387.891 761.662 426.491 790.462 476.991 814.462C499.691 825.262 523.891 834.762 550.991 843.762C570.491 850.162 593.191 857.062 616.791 856.662C655.791 856.262 688.891 836.762 709.891 820.462C769.791 773.862 801.191 696.662 787.991 628.462C781.391 593.462 763.891 557.462 734.691 518.562C716.091 493.762 696.091 472.162 675.291 454.562C642.591 426.862 607.291 399.262 566.191 393.262C560.691 392.562 555.291 392.162 549.891 392.162Z" fill="url(#paint21_linear_1_794)" stroke="#DFECEF" stroke-width="2" mask="url(#path-22-inside-22_1_794)"/>
</g>
</g>
<g opacity="0.8519">
<g opacity="0.8519">
<mask id="path-23-inside-23_1_794" fill="white">
<path d="M624.491 854.162C624.291 854.162 624.091 854.162 623.891 854.162C601.391 854.062 580.191 847.162 560.291 840.162C533.991 830.862 510.691 821.262 489.291 810.862C439.991 786.962 403.491 760.162 377.491 728.962C371.391 721.562 365.591 713.762 360.391 705.562C346.991 684.762 339.291 665.062 337.091 645.562C334.791 625.562 338.891 601.362 348.991 575.362C357.591 553.162 389.891 478.562 445.591 448.062L447.991 446.762C485.791 425.962 528.691 402.462 573.891 409.862C613.191 416.262 646.891 443.762 677.991 471.462C697.391 488.562 716.291 509.062 734.091 532.262C763.291 570.162 780.091 602.962 786.991 635.562C800.891 700.362 771.691 774.262 714.291 819.462C685.691 841.862 653.791 854.162 624.491 854.162ZM556.591 409.662C517.991 409.662 481.391 429.762 448.491 447.862L446.091 449.162C390.791 479.462 358.591 553.862 349.991 575.962C339.991 601.762 335.891 625.762 338.191 645.562C340.391 664.862 347.991 684.362 361.291 705.062C366.491 713.162 372.291 720.962 378.391 728.262C404.191 759.362 440.691 786.062 489.791 809.862C511.191 820.262 534.391 829.762 560.691 839.162C580.391 846.162 601.591 852.962 623.891 853.162C624.091 853.162 624.291 853.162 624.491 853.162C653.591 853.162 685.191 840.862 713.591 818.562C770.691 773.662 799.691 700.262 785.891 635.862C779.091 603.462 762.291 570.762 733.191 533.062C715.391 509.862 696.591 489.462 677.191 472.462C646.191 444.962 612.691 417.562 573.691 411.162C567.991 410.062 562.291 409.662 556.591 409.662Z"/>
</mask>
<path d="M624.491 854.162C624.291 854.162 624.091 854.162 623.891 854.162C601.391 854.062 580.191 847.162 560.291 840.162C533.991 830.862 510.691 821.262 489.291 810.862C439.991 786.962 403.491 760.162 377.491 728.962C371.391 721.562 365.591 713.762 360.391 705.562C346.991 684.762 339.291 665.062 337.091 645.562C334.791 625.562 338.891 601.362 348.991 575.362C357.591 553.162 389.891 478.562 445.591 448.062L447.991 446.762C485.791 425.962 528.691 402.462 573.891 409.862C613.191 416.262 646.891 443.762 677.991 471.462C697.391 488.562 716.291 509.062 734.091 532.262C763.291 570.162 780.091 602.962 786.991 635.562C800.891 700.362 771.691 774.262 714.291 819.462C685.691 841.862 653.791 854.162 624.491 854.162ZM556.591 409.662C517.991 409.662 481.391 429.762 448.491 447.862L446.091 449.162C390.791 479.462 358.591 553.862 349.991 575.962C339.991 601.762 335.891 625.762 338.191 645.562C340.391 664.862 347.991 684.362 361.291 705.062C366.491 713.162 372.291 720.962 378.391 728.262C404.191 759.362 440.691 786.062 489.791 809.862C511.191 820.262 534.391 829.762 560.691 839.162C580.391 846.162 601.591 852.962 623.891 853.162C624.091 853.162 624.291 853.162 624.491 853.162C653.591 853.162 685.191 840.862 713.591 818.562C770.691 773.662 799.691 700.262 785.891 635.862C779.091 603.462 762.291 570.762 733.191 533.062C715.391 509.862 696.591 489.462 677.191 472.462C646.191 444.962 612.691 417.562 573.691 411.162C567.991 410.062 562.291 409.662 556.591 409.662Z" fill="url(#paint22_linear_1_794)" stroke="#DFECEF" stroke-width="2" mask="url(#path-23-inside-23_1_794)"/>
</g>
</g>
<g opacity="0.8889">
<g opacity="0.8889">
<mask id="path-24-inside-24_1_794" fill="white">
<path d="M633.291 850.562C632.491 850.562 631.791 850.562 630.991 850.562C609.791 850.062 589.291 842.862 570.091 835.562C544.491 825.762 522.291 816.162 502.091 806.262C454.891 782.962 419.391 757.462 393.591 728.362C387.391 721.462 381.591 714.062 376.191 706.362C362.091 686.362 353.991 667.662 351.391 649.262C348.591 629.862 352.391 606.562 362.291 581.962C370.791 560.662 402.791 489.162 457.291 461.662L463.291 458.662C500.891 439.662 539.791 419.962 581.391 427.662C618.691 434.562 649.291 460.662 679.891 489.262C697.791 505.862 715.491 525.162 732.491 546.762C752.091 571.362 775.691 604.562 784.691 642.862C791.991 673.462 789.091 706.662 776.291 738.862C764.091 769.362 743.391 797.262 717.891 817.462C691.091 838.862 661.091 850.562 633.291 850.562ZM562.691 426.962C528.291 426.962 495.591 443.462 463.891 459.562L457.891 462.562C403.691 489.862 371.891 561.062 363.391 582.262C353.591 606.762 349.891 629.862 352.591 648.962C355.191 667.162 363.291 685.762 377.191 705.562C382.491 713.162 388.391 720.562 394.491 727.462C420.191 756.462 455.591 781.862 502.591 805.162C522.691 815.062 544.891 824.662 570.491 834.462C589.591 841.762 609.991 848.962 631.091 849.462C659.191 850.162 689.791 838.362 717.291 816.462C771.591 773.462 798.291 703.762 783.691 643.062C774.691 604.962 751.191 571.962 731.691 547.362C714.691 525.862 696.991 506.562 679.191 490.062C648.691 461.662 618.291 435.562 581.291 428.762C574.991 427.562 568.791 426.962 562.691 426.962Z"/>
</mask>
<path d="M633.291 850.562C632.491 850.562 631.791 850.562 630.991 850.562C609.791 850.062 589.291 842.862 570.091 835.562C544.491 825.762 522.291 816.162 502.091 806.262C454.891 782.962 419.391 757.462 393.591 728.362C387.391 721.462 381.591 714.062 376.191 706.362C362.091 686.362 353.991 667.662 351.391 649.262C348.591 629.862 352.391 606.562 362.291 581.962C370.791 560.662 402.791 489.162 457.291 461.662L463.291 458.662C500.891 439.662 539.791 419.962 581.391 427.662C618.691 434.562 649.291 460.662 679.891 489.262C697.791 505.862 715.491 525.162 732.491 546.762C752.091 571.362 775.691 604.562 784.691 642.862C791.991 673.462 789.091 706.662 776.291 738.862C764.091 769.362 743.391 797.262 717.891 817.462C691.091 838.862 661.091 850.562 633.291 850.562ZM562.691 426.962C528.291 426.962 495.591 443.462 463.891 459.562L457.891 462.562C403.691 489.862 371.891 561.062 363.391 582.262C353.591 606.762 349.891 629.862 352.591 648.962C355.191 667.162 363.291 685.762 377.191 705.562C382.491 713.162 388.391 720.562 394.491 727.462C420.191 756.462 455.591 781.862 502.591 805.162C522.691 815.062 544.891 824.662 570.491 834.462C589.591 841.762 609.991 848.962 631.091 849.462C659.191 850.162 689.791 838.362 717.291 816.462C771.591 773.462 798.291 703.762 783.691 643.062C774.691 604.962 751.191 571.962 731.691 547.362C714.691 525.862 696.991 506.562 679.191 490.062C648.691 461.662 618.291 435.562 581.291 428.762C574.991 427.562 568.791 426.962 562.691 426.962Z" fill="#FF485A" stroke="#DFECEF" stroke-width="2" mask="url(#path-24-inside-24_1_794)"/>
</g>
</g>
<g opacity="0.9259">
<g opacity="0.9259">
<mask id="path-25-inside-25_1_794" fill="white">
<path d="M641.991 847.049C640.691 847.049 639.391 847.049 638.191 846.949C618.191 846.149 599.191 838.849 579.891 830.849C554.491 820.349 533.891 811.049 514.991 801.549C469.791 778.749 435.391 754.549 409.791 727.549C403.591 721.049 397.591 714.049 392.191 706.949C377.191 687.549 368.791 670.249 365.791 652.649C362.591 633.849 365.991 611.549 375.691 588.149C384.191 567.749 415.891 499.349 469.191 474.949C472.291 473.549 475.391 472.149 478.491 470.649C513.991 454.249 550.791 437.249 589.191 445.049C624.691 452.349 653.391 478.349 682.191 506.649C698.491 522.649 715.091 540.849 731.391 560.749C752.891 586.949 773.991 615.849 782.891 649.749C790.491 678.449 788.291 709.749 776.491 740.349C765.291 769.249 745.891 795.749 721.891 815.149C696.291 835.849 668.191 847.049 641.991 847.049ZM569.191 444.349C538.191 444.349 508.091 458.249 478.891 471.749C475.791 473.149 472.691 474.649 469.591 476.049C416.691 500.249 385.091 568.349 376.691 588.649C367.091 611.849 363.691 633.949 366.891 652.549C369.891 669.949 378.191 687.049 393.091 706.349C398.591 713.449 404.491 720.349 410.691 726.849C436.191 753.749 470.491 777.849 515.591 800.549C534.391 810.049 554.991 819.349 580.391 829.849C599.591 837.749 618.591 844.949 638.291 845.849C665.191 847.049 694.591 835.849 721.091 814.449C771.691 773.749 796.591 706.249 781.691 650.249C772.791 616.549 751.791 587.749 730.391 561.749C714.091 541.849 697.591 523.749 681.291 507.749C652.691 479.549 624.091 453.649 588.891 446.449C582.191 445.049 575.691 444.349 569.191 444.349Z"/>
</mask>
<path d="M641.991 847.049C640.691 847.049 639.391 847.049 638.191 846.949C618.191 846.149 599.191 838.849 579.891 830.849C554.491 820.349 533.891 811.049 514.991 801.549C469.791 778.749 435.391 754.549 409.791 727.549C403.591 721.049 397.591 714.049 392.191 706.949C377.191 687.549 368.791 670.249 365.791 652.649C362.591 633.849 365.991 611.549 375.691 588.149C384.191 567.749 415.891 499.349 469.191 474.949C472.291 473.549 475.391 472.149 478.491 470.649C513.991 454.249 550.791 437.249 589.191 445.049C624.691 452.349 653.391 478.349 682.191 506.649C698.491 522.649 715.091 540.849 731.391 560.749C752.891 586.949 773.991 615.849 782.891 649.749C790.491 678.449 788.291 709.749 776.491 740.349C765.291 769.249 745.891 795.749 721.891 815.149C696.291 835.849 668.191 847.049 641.991 847.049ZM569.191 444.349C538.191 444.349 508.091 458.249 478.891 471.749C475.791 473.149 472.691 474.649 469.591 476.049C416.691 500.249 385.091 568.349 376.691 588.649C367.091 611.849 363.691 633.949 366.891 652.549C369.891 669.949 378.191 687.049 393.091 706.349C398.591 713.449 404.491 720.349 410.691 726.849C436.191 753.749 470.491 777.849 515.591 800.549C534.391 810.049 554.991 819.349 580.391 829.849C599.591 837.749 618.591 844.949 638.291 845.849C665.191 847.049 694.591 835.849 721.091 814.449C771.691 773.749 796.591 706.249 781.691 650.249C772.791 616.549 751.791 587.749 730.391 561.749C714.091 541.849 697.591 523.749 681.291 507.749C652.691 479.549 624.091 453.649 588.891 446.449C582.191 445.049 575.691 444.349 569.191 444.349Z" fill="url(#paint23_linear_1_794)" stroke="#DFECEF" stroke-width="2" mask="url(#path-25-inside-25_1_794)"/>
</g>
</g>
<g opacity="0.963">
<g opacity="0.963">
<mask id="path-26-inside-26_1_794" fill="white">
<path d="M650.791 843.449C648.991 843.449 647.291 843.349 645.491 843.249C625.191 841.949 605.591 833.249 589.791 826.149C572.491 818.449 549.891 808.149 527.991 796.849C484.191 774.149 451.791 751.949 426.091 726.849C419.791 720.649 413.791 714.249 408.191 707.649C392.491 689.149 383.591 672.849 380.291 656.249C375.591 633.149 382.491 609.949 389.191 594.649C397.591 575.149 429.191 509.849 481.091 488.549C485.191 486.849 489.191 485.149 493.291 483.449C526.791 469.349 561.491 454.849 596.791 462.949C630.591 470.749 656.391 495.449 684.191 524.649C698.991 540.149 714.391 557.249 729.891 575.449C750.591 599.649 771.491 625.949 780.791 657.249C796.491 709.849 773.791 774.049 725.691 813.349C701.691 832.849 675.291 843.449 650.791 843.449ZM575.791 461.649C547.991 461.649 520.491 473.149 493.691 484.449C489.591 486.149 485.491 487.849 481.491 489.549C429.991 510.649 398.591 575.649 390.191 595.049C383.591 610.249 376.791 633.149 381.391 656.049C384.691 672.449 393.491 688.549 409.091 706.949C414.691 713.549 420.591 719.949 426.891 726.049C452.491 751.049 484.791 773.249 528.491 795.849C550.391 807.149 572.991 817.449 590.191 825.149C605.891 832.149 625.391 840.849 645.491 842.149C671.191 843.749 699.391 833.249 724.791 812.349C772.591 773.349 795.091 709.649 779.591 657.449C770.391 626.349 749.491 600.149 728.891 576.049C713.391 557.849 698.091 540.749 683.291 525.349C655.591 496.349 629.991 471.649 596.491 463.949C589.591 462.349 582.691 461.649 575.791 461.649Z"/>
</mask>
<path d="M650.791 843.449C648.991 843.449 647.291 843.349 645.491 843.249C625.191 841.949 605.591 833.249 589.791 826.149C572.491 818.449 549.891 808.149 527.991 796.849C484.191 774.149 451.791 751.949 426.091 726.849C419.791 720.649 413.791 714.249 408.191 707.649C392.491 689.149 383.591 672.849 380.291 656.249C375.591 633.149 382.491 609.949 389.191 594.649C397.591 575.149 429.191 509.849 481.091 488.549C485.191 486.849 489.191 485.149 493.291 483.449C526.791 469.349 561.491 454.849 596.791 462.949C630.591 470.749 656.391 495.449 684.191 524.649C698.991 540.149 714.391 557.249 729.891 575.449C750.591 599.649 771.491 625.949 780.791 657.249C796.491 709.849 773.791 774.049 725.691 813.349C701.691 832.849 675.291 843.449 650.791 843.449ZM575.791 461.649C547.991 461.649 520.491 473.149 493.691 484.449C489.591 486.149 485.491 487.849 481.491 489.549C429.991 510.649 398.591 575.649 390.191 595.049C383.591 610.249 376.791 633.149 381.391 656.049C384.691 672.449 393.491 688.549 409.091 706.949C414.691 713.549 420.591 719.949 426.891 726.049C452.491 751.049 484.791 773.249 528.491 795.849C550.391 807.149 572.991 817.449 590.191 825.149C605.891 832.149 625.391 840.849 645.491 842.149C671.191 843.749 699.391 833.249 724.791 812.349C772.591 773.349 795.091 709.649 779.591 657.449C770.391 626.349 749.491 600.149 728.891 576.049C713.391 557.849 698.091 540.749 683.291 525.349C655.591 496.349 629.991 471.649 596.491 463.949C589.591 462.349 582.691 461.649 575.791 461.649Z" fill="#FF485A" stroke="#DFECEF" stroke-width="2" mask="url(#path-26-inside-26_1_794)"/>
</g>
</g>
<mask id="path-27-inside-27_1_794" fill="white">
<path d="M658.991 840.049C656.791 840.049 654.591 839.949 652.391 839.749C633.391 838.149 615.291 829.349 599.291 821.649C539.791 792.849 472.391 760.249 423.891 708.449C413.591 697.449 399.291 680.349 394.391 659.849C388.991 637.349 395.691 615.449 402.291 601.049C410.791 582.449 442.291 520.149 492.691 502.049C497.591 500.249 502.691 498.349 507.591 496.549C539.191 484.649 571.891 472.349 604.291 480.649C639.091 489.549 665.191 518.849 686.091 542.349L728.291 589.749C747.291 611.049 768.791 635.249 778.491 664.449C794.791 713.249 774.491 773.649 729.191 811.349C706.691 829.949 681.991 840.049 658.991 840.049ZM403.291 601.549C396.791 615.749 390.191 637.449 395.491 659.649C399.191 675.249 408.191 690.049 424.691 707.649C472.991 759.349 540.391 791.849 599.791 820.649C615.691 828.349 633.691 837.049 652.491 838.649C676.991 840.749 703.991 830.749 728.391 810.449C773.291 773.149 793.491 713.249 777.291 664.849C767.691 635.949 746.191 611.849 727.291 590.549L685.091 543.149C664.291 519.749 638.391 490.649 603.891 481.749C571.891 473.549 539.391 485.749 507.891 497.649C502.991 499.449 497.891 501.349 492.991 503.149C443.091 521.149 411.691 582.949 403.291 601.549Z"/>
</mask>
<path d="M658.991 840.049C656.791 840.049 654.591 839.949 652.391 839.749C633.391 838.149 615.291 829.349 599.291 821.649C539.791 792.849 472.391 760.249 423.891 708.449C413.591 697.449 399.291 680.349 394.391 659.849C388.991 637.349 395.691 615.449 402.291 601.049C410.791 582.449 442.291 520.149 492.691 502.049C497.591 500.249 502.691 498.349 507.591 496.549C539.191 484.649 571.891 472.349 604.291 480.649C639.091 489.549 665.191 518.849 686.091 542.349L728.291 589.749C747.291 611.049 768.791 635.249 778.491 664.449C794.791 713.249 774.491 773.649 729.191 811.349C706.691 829.949 681.991 840.049 658.991 840.049ZM403.291 601.549C396.791 615.749 390.191 637.449 395.491 659.649C399.191 675.249 408.191 690.049 424.691 707.649C472.991 759.349 540.391 791.849 599.791 820.649C615.691 828.349 633.691 837.049 652.491 838.649C676.991 840.749 703.991 830.749 728.391 810.449C773.291 773.149 793.491 713.249 777.291 664.849C767.691 635.949 746.191 611.849 727.291 590.549L685.091 543.149C664.291 519.749 638.391 490.649 603.891 481.749C571.891 473.549 539.391 485.749 507.891 497.649C502.991 499.449 497.891 501.349 492.991 503.149C443.091 521.149 411.691 582.949 403.291 601.549Z" fill="#FF485A" stroke="#DFECEF" stroke-width="2" mask="url(#path-27-inside-27_1_794)"/>
<defs>
<linearGradient id="paint0_linear_1_794" x1="-9.26573" y1="560.375" x2="834.63" y2="397.891" gradientUnits="userSpaceOnUse">
<stop stop-color="#FFF154"/>
<stop offset="0.085415" stop-color="#CFC383"/>
<stop offset="0.1781" stop-color="#A298AF"/>
<stop offset="0.2673" stop-color="#7E76D2"/>
<stop offset="0.3507" stop-color="#655EEB"/>
<stop offset="0.4261" stop-color="#554FFA"/>
<stop offset="0.4866" stop-color="#504AFF"/>
<stop offset="0.7138" stop-color="#8C3EA5"/>
<stop offset="1" stop-color="#DB2E2E"/>
</linearGradient>
<linearGradient id="paint1_linear_1_794" x1="8.60963" y1="555.753" x2="832.565" y2="415.297" gradientUnits="userSpaceOnUse">
<stop stop-color="#FFF154"/>
<stop offset="0.085415" stop-color="#CFC383"/>
<stop offset="0.1781" stop-color="#A298AF"/>
<stop offset="0.2673" stop-color="#7E76D2"/>
<stop offset="0.3507" stop-color="#655EEB"/>
<stop offset="0.4261" stop-color="#554FFA"/>
<stop offset="0.4866" stop-color="#504AFF"/>
<stop offset="0.7138" stop-color="#8C3EA5"/>
<stop offset="1" stop-color="#DB2E2E"/>
</linearGradient>
<linearGradient id="paint2_linear_1_794" x1="26.5432" y1="551.547" x2="830.495" y2="432.374" gradientUnits="userSpaceOnUse">
<stop stop-color="#FFF154"/>
<stop offset="0.085415" stop-color="#CFC383"/>
<stop offset="0.1781" stop-color="#A298AF"/>
<stop offset="0.2673" stop-color="#7E76D2"/>
<stop offset="0.3507" stop-color="#655EEB"/>
<stop offset="0.4261" stop-color="#554FFA"/>
<stop offset="0.4866" stop-color="#504AFF"/>
<stop offset="0.7138" stop-color="#8C3EA5"/>
<stop offset="1" stop-color="#DB2E2E"/>
</linearGradient>
<linearGradient id="paint3_linear_1_794" x1="44.5438" y1="547.756" x2="828.461" y2="449.258" gradientUnits="userSpaceOnUse">
<stop stop-color="#FFF154"/>
<stop offset="0.085415" stop-color="#CFC383"/>
<stop offset="0.1781" stop-color="#A298AF"/>
<stop offset="0.2673" stop-color="#7E76D2"/>
<stop offset="0.3507" stop-color="#655EEB"/>
<stop offset="0.4261" stop-color="#554FFA"/>
<stop offset="0.4866" stop-color="#504AFF"/>
<stop offset="0.7138" stop-color="#8C3EA5"/>
<stop offset="1" stop-color="#DB2E2E"/>
</linearGradient>
<linearGradient id="paint4_linear_1_794" x1="62.5362" y1="544.384" x2="826.44" y2="465.78" gradientUnits="userSpaceOnUse">
<stop stop-color="#FFF154"/>
<stop offset="0.085415" stop-color="#CFC383"/>
<stop offset="0.1781" stop-color="#A298AF"/>
<stop offset="0.2673" stop-color="#7E76D2"/>
<stop offset="0.3507" stop-color="#655EEB"/>
<stop offset="0.4261" stop-color="#554FFA"/>
<stop offset="0.4866" stop-color="#504AFF"/>
<stop offset="0.7138" stop-color="#8C3EA5"/>
<stop offset="1" stop-color="#DB2E2E"/>
</linearGradient>
<linearGradient id="paint5_linear_1_794" x1="80.5041" y1="541.493" x2="824.451" y2="482.136" gradientUnits="userSpaceOnUse">
<stop stop-color="#FFF154"/>
<stop offset="0.085415" stop-color="#CFC383"/>
<stop offset="0.1781" stop-color="#A298AF"/>
<stop offset="0.2673" stop-color="#7E76D2"/>
<stop offset="0.3507" stop-color="#655EEB"/>
<stop offset="0.4261" stop-color="#554FFA"/>
<stop offset="0.4866" stop-color="#504AFF"/>
<stop offset="0.7138" stop-color="#8C3EA5"/>
<stop offset="1" stop-color="#DB2E2E"/>
</linearGradient>
<linearGradient id="paint6_linear_1_794" x1="98.3757" y1="538.991" x2="822.473" y2="498.15" gradientUnits="userSpaceOnUse">
<stop stop-color="#FFF154"/>
<stop offset="0.085415" stop-color="#CFC383"/>
<stop offset="0.1781" stop-color="#A298AF"/>
<stop offset="0.2673" stop-color="#7E76D2"/>
<stop offset="0.3507" stop-color="#655EEB"/>
<stop offset="0.4261" stop-color="#554FFA"/>
<stop offset="0.4866" stop-color="#504AFF"/>
<stop offset="0.7138" stop-color="#8C3EA5"/>
<stop offset="1" stop-color="#DB2E2E"/>
</linearGradient>
<linearGradient id="paint7_linear_1_794" x1="116.091" y1="536.937" x2="820.502" y2="513.803" gradientUnits="userSpaceOnUse">
<stop stop-color="#FFF154"/>
<stop offset="0.085415" stop-color="#CFC383"/>
<stop offset="0.1781" stop-color="#A298AF"/>
<stop offset="0.2673" stop-color="#7E76D2"/>
<stop offset="0.3507" stop-color="#655EEB"/>
<stop offset="0.4261" stop-color="#554FFA"/>
<stop offset="0.4866" stop-color="#504AFF"/>
<stop offset="0.7138" stop-color="#8C3EA5"/>
<stop offset="1" stop-color="#DB2E2E"/>
</linearGradient>
<linearGradient id="paint8_linear_1_794" x1="133.627" y1="535.274" x2="818.535" y2="529.177" gradientUnits="userSpaceOnUse">
<stop stop-color="#FFF154"/>
<stop offset="0.085415" stop-color="#CFC383"/>
<stop offset="0.1781" stop-color="#A298AF"/>
<stop offset="0.2673" stop-color="#7E76D2"/>
<stop offset="0.3507" stop-color="#655EEB"/>
<stop offset="0.4261" stop-color="#554FFA"/>
<stop offset="0.4866" stop-color="#504AFF"/>
<stop offset="0.7138" stop-color="#8C3EA5"/>
<stop offset="1" stop-color="#DB2E2E"/>
</linearGradient>
<linearGradient id="paint9_linear_1_794" x1="150.926" y1="534.014" x2="816.525" y2="544.147" gradientUnits="userSpaceOnUse">
<stop stop-color="#FFF154"/>
<stop offset="0.085415" stop-color="#CFC383"/>
<stop offset="0.1781" stop-color="#A298AF"/>
<stop offset="0.2673" stop-color="#7E76D2"/>
<stop offset="0.3507" stop-color="#655EEB"/>
<stop offset="0.4261" stop-color="#554FFA"/>
<stop offset="0.4866" stop-color="#504AFF"/>
<stop offset="0.7138" stop-color="#8C3EA5"/>
<stop offset="1" stop-color="#DB2E2E"/>
</linearGradient>
<linearGradient id="paint10_linear_1_794" x1="167.981" y1="533.165" x2="814.485" y2="558.857" gradientUnits="userSpaceOnUse">
<stop stop-color="#FFF154"/>
<stop offset="0.085415" stop-color="#CFC383"/>
<stop offset="0.1781" stop-color="#A298AF"/>
<stop offset="0.2673" stop-color="#7E76D2"/>
<stop offset="0.3507" stop-color="#655EEB"/>
<stop offset="0.4261" stop-color="#554FFA"/>
<stop offset="0.4866" stop-color="#504AFF"/>
<stop offset="0.7138" stop-color="#8C3EA5"/>
<stop offset="1" stop-color="#DB2E2E"/>
</linearGradient>
<linearGradient id="paint11_linear_1_794" x1="184.762" y1="532.653" x2="812.423" y2="573.107" gradientUnits="userSpaceOnUse">
<stop stop-color="#FFF154"/>
<stop offset="0.085415" stop-color="#CFC383"/>
<stop offset="0.1781" stop-color="#A298AF"/>
<stop offset="0.2673" stop-color="#7E76D2"/>
<stop offset="0.3507" stop-color="#655EEB"/>
<stop offset="0.4261" stop-color="#554FFA"/>
<stop offset="0.4866" stop-color="#504AFF"/>
<stop offset="0.7138" stop-color="#8C3EA5"/>
<stop offset="1" stop-color="#DB2E2E"/>
</linearGradient>
<linearGradient id="paint12_linear_1_794" x1="201.292" y1="532.504" x2="810.34" y2="587.053" gradientUnits="userSpaceOnUse">
<stop stop-color="#FFF154"/>
<stop offset="0.085415" stop-color="#CFC383"/>
<stop offset="0.1781" stop-color="#A298AF"/>
<stop offset="0.2673" stop-color="#7E76D2"/>
<stop offset="0.3507" stop-color="#655EEB"/>
<stop offset="0.4261" stop-color="#554FFA"/>
<stop offset="0.4866" stop-color="#504AFF"/>
<stop offset="0.7138" stop-color="#8C3EA5"/>
<stop offset="1" stop-color="#DB2E2E"/>
</linearGradient>
<linearGradient id="paint13_linear_1_794" x1="217.611" y1="532.661" x2="808.228" y2="600.566" gradientUnits="userSpaceOnUse">
<stop stop-color="#FFF154"/>
<stop offset="0.085415" stop-color="#CFC383"/>
<stop offset="0.1781" stop-color="#A298AF"/>
<stop offset="0.2673" stop-color="#7E76D2"/>
<stop offset="0.3507" stop-color="#655EEB"/>
<stop offset="0.4261" stop-color="#554FFA"/>
<stop offset="0.4866" stop-color="#504AFF"/>
<stop offset="0.7138" stop-color="#8C3EA5"/>
<stop offset="1" stop-color="#DB2E2E"/>
</linearGradient>
<linearGradient id="paint14_linear_1_794" x1="233.727" y1="533.155" x2="806.127" y2="613.635" gradientUnits="userSpaceOnUse">
<stop stop-color="#FFF154"/>
<stop offset="0.085415" stop-color="#CFC383"/>
<stop offset="0.1781" stop-color="#A298AF"/>
<stop offset="0.2673" stop-color="#7E76D2"/>
<stop offset="0.3507" stop-color="#655EEB"/>
<stop offset="0.4261" stop-color="#554FFA"/>
<stop offset="0.4866" stop-color="#504AFF"/>
<stop offset="0.7138" stop-color="#8C3EA5"/>
<stop offset="1" stop-color="#DB2E2E"/>
</linearGradient>
<linearGradient id="paint15_linear_1_794" x1="249.694" y1="534.002" x2="803.967" y2="626.372" gradientUnits="userSpaceOnUse">
<stop stop-color="#FFF154"/>
<stop offset="0.085415" stop-color="#CFC383"/>
<stop offset="0.1781" stop-color="#A298AF"/>
<stop offset="0.2673" stop-color="#7E76D2"/>
<stop offset="0.3507" stop-color="#655EEB"/>
<stop offset="0.4261" stop-color="#554FFA"/>
<stop offset="0.4866" stop-color="#504AFF"/>
<stop offset="0.7138" stop-color="#8C3EA5"/>
<stop offset="1" stop-color="#DB2E2E"/>
</linearGradient>
<linearGradient id="paint16_linear_1_794" x1="265.524" y1="535.115" x2="801.827" y2="638.578" gradientUnits="userSpaceOnUse">
<stop stop-color="#FFF154"/>
<stop offset="0.085415" stop-color="#CFC383"/>
<stop offset="0.1781" stop-color="#A298AF"/>
<stop offset="0.2673" stop-color="#7E76D2"/>
<stop offset="0.3507" stop-color="#655EEB"/>
<stop offset="0.4261" stop-color="#554FFA"/>
<stop offset="0.4866" stop-color="#504AFF"/>
<stop offset="0.7138" stop-color="#8C3EA5"/>
<stop offset="1" stop-color="#DB2E2E"/>
</linearGradient>
<linearGradient id="paint17_linear_1_794" x1="281.231" y1="536.573" x2="799.667" y2="650.433" gradientUnits="userSpaceOnUse">
<stop stop-color="#FFF154"/>
<stop offset="0.085415" stop-color="#CFC383"/>
<stop offset="0.1781" stop-color="#A298AF"/>
<stop offset="0.2673" stop-color="#7E76D2"/>
<stop offset="0.3507" stop-color="#655EEB"/>
<stop offset="0.4261" stop-color="#554FFA"/>
<stop offset="0.4866" stop-color="#504AFF"/>
<stop offset="0.7138" stop-color="#8C3EA5"/>
<stop offset="1" stop-color="#DB2E2E"/>
</linearGradient>
<linearGradient id="paint18_linear_1_794" x1="296.842" y1="538.289" x2="797.511" y2="661.785" gradientUnits="userSpaceOnUse">
<stop stop-color="#FFF154"/>
<stop offset="0.085415" stop-color="#CFC383"/>
<stop offset="0.1781" stop-color="#A298AF"/>
<stop offset="0.2673" stop-color="#7E76D2"/>
<stop offset="0.3507" stop-color="#655EEB"/>
<stop offset="0.4261" stop-color="#554FFA"/>
<stop offset="0.4866" stop-color="#504AFF"/>
<stop offset="0.7138" stop-color="#8C3EA5"/>
<stop offset="1" stop-color="#DB2E2E"/>
</linearGradient>
<linearGradient id="paint19_linear_1_794" x1="312.354" y1="540.344" x2="795.215" y2="672.618" gradientUnits="userSpaceOnUse">
<stop stop-color="#FFF154"/>
<stop offset="0.085415" stop-color="#CFC383"/>
<stop offset="0.1781" stop-color="#A298AF"/>
<stop offset="0.2673" stop-color="#7E76D2"/>
<stop offset="0.3507" stop-color="#655EEB"/>
<stop offset="0.4261" stop-color="#554FFA"/>
<stop offset="0.4866" stop-color="#504AFF"/>
<stop offset="0.7138" stop-color="#8C3EA5"/>
<stop offset="1" stop-color="#DB2E2E"/>
</linearGradient>
<linearGradient id="paint20_linear_1_794" x1="327.808" y1="542.701" x2="793.124" y2="683.074" gradientUnits="userSpaceOnUse">
<stop stop-color="#FFF154"/>
<stop offset="0.085415" stop-color="#CFC383"/>
<stop offset="0.1781" stop-color="#A298AF"/>
<stop offset="0.2673" stop-color="#7E76D2"/>
<stop offset="0.3507" stop-color="#655EEB"/>
<stop offset="0.4261" stop-color="#554FFA"/>
<stop offset="0.4866" stop-color="#504AFF"/>
<stop offset="0.7138" stop-color="#8C3EA5"/>
<stop offset="1" stop-color="#DB2E2E"/>
</linearGradient>
<linearGradient id="paint21_linear_1_794" x1="343.211" y1="545.375" x2="791.07" y2="693.013" gradientUnits="userSpaceOnUse">
<stop stop-color="#FFF154"/>
<stop offset="0.085415" stop-color="#CFC383"/>
<stop offset="0.1781" stop-color="#A298AF"/>
<stop offset="0.2673" stop-color="#7E76D2"/>
<stop offset="0.3507" stop-color="#655EEB"/>
<stop offset="0.4261" stop-color="#554FFA"/>
<stop offset="0.4866" stop-color="#504AFF"/>
<stop offset="0.7138" stop-color="#8C3EA5"/>
<stop offset="1" stop-color="#DB2E2E"/>
</linearGradient>
<linearGradient id="paint22_linear_1_794" x1="358.589" y1="548.376" x2="789.04" y2="702.523" gradientUnits="userSpaceOnUse">
<stop stop-color="#FFF154"/>
<stop offset="0.085415" stop-color="#CFC383"/>
<stop offset="0.1781" stop-color="#A298AF"/>
<stop offset="0.2673" stop-color="#7E76D2"/>
<stop offset="0.3507" stop-color="#655EEB"/>
<stop offset="0.4261" stop-color="#554FFA"/>
<stop offset="0.4866" stop-color="#504AFF"/>
<stop offset="0.7138" stop-color="#8C3EA5"/>
<stop offset="1" stop-color="#DB2E2E"/>
</linearGradient>
<linearGradient id="paint23_linear_1_794" x1="389.308" y1="555.344" x2="784.941" y2="719.936" gradientUnits="userSpaceOnUse">
<stop stop-color="#FFF154"/>
<stop offset="0.085415" stop-color="#CFC383"/>
<stop offset="0.1781" stop-color="#A298AF"/>
<stop offset="0.2673" stop-color="#7E76D2"/>
<stop offset="0.3507" stop-color="#655EEB"/>
<stop offset="0.4261" stop-color="#554FFA"/>
<stop offset="0.4866" stop-color="#504AFF"/>
<stop offset="0.7138" stop-color="#8C3EA5"/>
<stop offset="1" stop-color="#DB2E2E"/>
</linearGradient>
</defs>
</svg>
