<svg width="21" height="21" viewBox="0 0 21 21" fill="none" xmlns="http://www.w3.org/2000/svg">
<path fill-rule="evenodd" clip-rule="evenodd" d="M1.26442 0.09021L3.39027 0.09771C3.71716 0.0846776 4.04457 0.0952603 4.36996 0.129377C4.46058 0.157666 4.54398 0.2055 4.61435 0.269546C4.68472 0.333591 4.74037 0.412308 4.77741 0.50021C4.95546 0.90521 5.36456 3.58354 5.55255 3.62438H16.8981L18.9685 3.62938C19.2781 3.59846 19.5906 3.61334 19.896 3.67354C20.0406 3.72581 20.1649 3.82285 20.2513 3.95073C20.3376 4.0786 20.3813 4.23072 20.3763 4.38521C20.3116 4.69225 20.2116 4.99066 20.0782 5.27438L19.6351 6.50688C19.1656 7.70688 18.807 8.92354 18.3192 10.1385L18.0393 10.796C17.8737 11.3294 17.4737 12.8085 16.9503 12.9027L8.20261 12.911C6.85356 13.051 5.3538 12.5285 5.19314 13.8685C5.16218 14.1208 5.22317 14.3757 5.3648 14.5861C5.50643 14.7965 5.71908 14.9481 5.96331 15.0127C6.72066 15.0922 7.48332 15.1072 8.24319 15.0577H14.9048H15.8C16.5644 15.0577 17.2078 15.0194 17.3205 15.6677C17.3364 15.794 17.3186 15.9224 17.269 16.0395C17.2193 16.1567 17.1397 16.2584 17.0381 16.3344C16.906 16.4364 16.7464 16.4959 16.5801 16.5052L9.91853 16.5002L6.86599 16.4952C6.48876 16.4967 6.11172 16.4783 5.7364 16.4402C5.31844 16.3518 4.93019 16.1564 4.60914 15.8729C4.28809 15.5895 4.04508 15.2276 3.90357 14.822C3.76205 14.4165 3.72682 13.9812 3.80126 13.558C3.8757 13.1348 4.05731 12.738 4.32855 12.406C4.59151 12.1117 4.90804 11.8707 5.26104 11.696C5.41048 11.6662 5.55437 11.613 5.68754 11.5385L5.70079 11.5202L5.71155 11.4935C5.72346 11.2843 5.68033 11.0756 5.5865 10.8885L5.16167 8.86354L4.02628 3.85604L3.66438 2.11271L3.52608 1.59021C3.36625 1.33521 1.48057 1.55854 1.01432 1.46021C0.889004 1.42338 0.776108 1.35271 0.687884 1.25588C0.599661 1.15904 0.539482 1.03974 0.513879 0.910925C0.488276 0.782107 0.498227 0.648692 0.542651 0.525163C0.587076 0.401633 0.664278 0.292708 0.765877 0.21021C0.922402 0.137039 1.09193 0.0962324 1.26442 0.09021V0.09021ZM7.69165 5.05854C7.07515 5.04096 6.45816 5.05598 5.84323 5.10354C5.90677 5.5717 5.99943 6.03539 6.12066 6.49188L6.57862 8.70354L7.01008 10.4894C7.05486 10.8172 7.13511 11.1391 7.24942 11.4494C7.5317 11.5214 7.8262 11.5305 8.11234 11.476L11.0108 11.481L15.0944 11.476C15.4576 11.5286 15.8265 11.5269 16.1892 11.471L16.2447 11.4319C16.4743 10.9812 16.6529 10.506 16.7772 10.0152C17.2128 8.89604 17.6136 7.72438 18.0501 6.57521L18.5801 5.19938C18.5837 5.18205 18.5832 5.16409 18.5784 5.14703C18.5737 5.12997 18.565 5.11431 18.5529 5.10138C18.5409 5.08845 18.5259 5.07864 18.5093 5.07278C18.4927 5.06692 18.4749 5.06518 18.4575 5.06771H16.0261L7.69165 5.05854ZM14.5156 17.9452C14.797 17.9215 15.0763 18.0112 15.2921 18.1947C15.5078 18.3781 15.6422 18.6403 15.6658 18.9235C15.6895 19.2068 15.6003 19.4878 15.418 19.7049C15.2356 19.922 14.9751 20.0573 14.6936 20.081C14.4486 20.1065 14.2023 20.0466 13.9958 19.9113C13.7894 19.7761 13.6353 19.5737 13.5592 19.3379C13.4832 19.1022 13.4898 18.8473 13.5779 18.6158C13.666 18.3844 13.8304 18.1903 14.0435 18.066C14.1949 18.0052 14.3536 17.9646 14.5156 17.9452ZM6.62914 17.9452C6.91181 17.9385 7.18557 18.045 7.39018 18.2414C7.5948 18.4377 7.71352 18.7078 7.72022 18.9923C7.72692 19.2767 7.62105 19.5522 7.42591 19.7581C7.23076 19.964 6.96233 20.0835 6.67965 20.0902C6.44129 20.1004 6.20633 20.0305 6.01168 19.8917C5.81702 19.7529 5.6737 19.553 5.60423 19.3233C5.53475 19.0937 5.54305 18.8473 5.62784 18.6229C5.71262 18.3985 5.86907 18.2088 6.07262 18.0835C6.24942 18.0077 6.43746 17.9618 6.62914 17.9477V17.9452Z" fill="black"/>
</svg>
